<svg width="44" height="35" viewBox="0 0 44 35" fill="none" xmlns="http://www.w3.org/2000/svg">
<g clip-path="url(#clip0_17_3590)">
<path fill-rule="evenodd" clip-rule="evenodd" d="M12.3334 0.649736C11.0099 0.0885544 9.90205 0.255924 8.58833 0.748189C6.57852 1.61457 5.11774 2.96338 3.7648 4.65677C2.33342 6.55691 1.38244 8.38813 0.735385 10.6821C0.304012 12.4345 0.127542 13.9803 0.529502 15.7623C0.853032 16.8748 1.23538 17.623 2.17656 18.3319L3.16676 18.9029L4.90205 19.9071L15.0295 2.22498L12.3334 0.659581V0.649736Z" fill="#61FF7E"/>
<path fill-rule="evenodd" clip-rule="evenodd" d="M10.6862 0.600541C10.0294 0.600541 9.39211 0.767911 8.69603 1.02389C6.97054 1.77213 5.51956 2.95356 3.99996 4.84386C2.56858 6.744 1.64701 8.56538 1.02937 10.7609C0.539171 12.7299 0.480348 14.1575 0.823485 15.6835C1.1078 16.6779 1.45094 17.3966 2.3529 18.0858L4.78427 19.4936L14.6274 2.33331L12.2058 0.925435C11.6764 0.698994 11.1764 0.610386 10.6862 0.610386V0.600541ZM4.89211 20.2124C4.84309 20.2124 4.78427 20.2025 4.73525 20.173L2.01956 18.5977C0.950936 17.8003 0.548975 16.9536 0.23525 15.8509C-0.225534 13.8129 0.0685833 12.1392 0.441132 10.6132C1.08819 8.32909 2.03917 6.4388 3.51956 4.47958C5.1078 2.50068 6.63721 1.27002 8.47054 0.472552C9.64701 0.0295139 10.9215 -0.27569 12.4509 0.374099C12.4607 0.374099 12.4705 0.383944 12.4803 0.39379L15.1764 1.95919C15.3235 2.0478 15.3725 2.22501 15.2843 2.37269L5.14701 20.0647C5.1078 20.1336 5.03917 20.1828 4.96074 20.2025C4.93133 20.2025 4.91172 20.2124 4.88231 20.2124H4.89211Z" fill="#0F9E2A"/>
<path fill-rule="evenodd" clip-rule="evenodd" d="M10.2254 19.5626C14.196 17.2588 17.4215 11.6569 17.4215 7.04928C17.4215 2.44169 14.196 0.561238 10.2254 2.87488C6.25479 5.17868 3.0293 10.7806 3.0293 15.3882C3.0293 19.9958 6.25479 21.8664 10.2254 19.5626Z" fill="#121212"/>
<path fill-rule="evenodd" clip-rule="evenodd" d="M13.4413 2.18569C12.5099 2.18569 11.4707 2.51059 10.3824 3.13084C6.5001 5.38541 3.33343 10.8791 3.33343 15.3882C3.33343 17.505 4.02951 19.0704 5.29421 19.7989C6.55892 20.5275 8.255 20.3503 10.0785 19.2968C13.9609 17.0422 17.1275 11.5486 17.1275 7.04927C17.1275 4.93253 16.4315 3.35728 15.1668 2.62873C14.657 2.33337 14.0785 2.18569 13.4413 2.18569ZM7.0099 20.8524C6.27461 20.8524 5.58833 20.6751 4.98049 20.3306C3.52951 19.4839 2.72559 17.7314 2.72559 15.3882C2.72559 10.692 6.0197 4.95222 10.0785 2.60904C12.0981 1.43745 14.0099 1.26024 15.4707 2.10693C16.9315 2.95363 17.7354 4.70609 17.7354 7.04927C17.7354 11.7455 14.4413 17.4754 10.3923 19.8284C9.20598 20.5176 8.06872 20.8622 7.0197 20.8622L7.0099 20.8524Z" fill="#0F9E2A"/>
<path fill-rule="evenodd" clip-rule="evenodd" d="M13.4411 4.62724L13.2548 4.54847C12.5195 4.30234 11.9901 4.34172 11.2548 4.52878C9.79402 4.98167 8.7254 5.86774 7.71559 6.99011C6.32344 8.62442 5.39206 10.4064 4.94108 12.5133C4.7254 13.7341 4.67638 14.8171 5.09795 15.9985C5.35285 16.609 5.59795 16.9732 6.12736 17.3769L6.84304 17.7904L7.10775 17.9479C8.05873 18.6075 8.75481 18.962 10.9509 17.6919C13.147 16.4219 16.1372 11.2236 16.1372 8.67365C16.1372 6.12372 15.4705 5.69053 14.4215 5.19826L13.4607 4.63708L13.4411 4.62724Z" fill="black"/>
<path fill-rule="evenodd" clip-rule="evenodd" d="M12.2744 4.67647C11.9705 4.67647 11.6764 4.73554 11.3234 4.81431C10.1077 5.19827 9.08814 5.90713 7.93127 7.17718C6.53912 8.81149 5.65676 10.5738 5.22539 12.5625C5.04892 13.5569 4.94108 14.6694 5.36265 15.8804C5.60774 16.4711 5.84304 16.7665 6.29402 17.1111L7.23519 17.6526C8.05872 18.2334 8.64696 18.6371 10.7744 17.3966C12.8921 16.1659 15.8038 11.0956 15.8038 8.64412C15.8038 6.19265 15.1568 5.85791 14.2646 5.4444L13.1274 4.80446C12.8136 4.69616 12.5391 4.65678 12.2646 4.65678L12.2744 4.67647ZM8.59794 18.834C7.95088 18.834 7.47049 18.5583 6.93127 18.1744L5.98029 17.623C5.33323 17.1406 5.07833 16.7173 4.82343 16.1069C4.34304 14.7384 4.46068 13.5471 4.65676 12.4542C5.10774 10.3572 6.03912 8.50629 7.4999 6.78336C8.745 5.41487 9.84304 4.65678 11.1862 4.23343C11.9607 4.03653 12.5489 3.9873 13.3724 4.25312L13.5881 4.34173C13.5881 4.34173 13.6077 4.35158 13.6175 4.36142L14.5783 4.9226C15.696 5.43456 16.4509 5.9859 16.4509 8.66381C16.4509 11.3417 13.4117 16.609 11.1175 17.9381C9.9999 18.5879 9.23519 18.834 8.61755 18.834H8.59794Z" fill="#0F9E2A"/>
<path fill-rule="evenodd" clip-rule="evenodd" d="M18.0196 32.0563L13.5588 28.5021L7.8529 17.6428C7.21565 17.1603 6.95094 16.6484 6.72545 15.8805C6.38232 14.3544 6.65683 12.9269 7.16663 11.4698C7.67643 10.1505 8.26467 9.11674 9.14702 8.02392C12.6764 3.87905 20.549 5.28693 25.0196 6.6948C25.7745 6.93109 26.3431 7.42335 26.6764 8.15191L27.7255 10.4262C27.9902 10.9972 28.049 11.5584 27.9117 12.1688L27.0392 16.1463L31.8235 27.0942L26.8039 29.9001C26.9019 30.2349 25.696 31.6625 24.3431 31.2785C24.1568 31.564 24.2745 32.2138 22.7549 32.1646C22.8235 32.4501 22.4509 32.7159 21.7647 32.7159L18.5882 32.2827C18.3627 32.2532 18.1862 32.1744 18.0098 32.0366L18.0196 32.0563Z" fill="black"/>
<path fill-rule="evenodd" clip-rule="evenodd" d="M13.7941 28.3052L18.2058 31.82C18.3333 31.9283 18.4705 31.9873 18.6372 32.007L21.8137 32.4304C22.245 32.4304 22.4509 32.2827 22.4705 32.2335C22.4509 32.1448 22.4705 32.0562 22.5294 31.9775C22.5882 31.8987 22.7058 31.8692 22.7745 31.8692C23.7941 31.8987 23.8823 31.6329 23.9803 31.3769C24.0097 31.2883 24.049 31.1997 24.098 31.1209C24.1666 31.0126 24.3039 30.9634 24.4313 30.993C24.9901 31.1505 25.4803 30.9339 25.8039 30.7271C26.2647 30.4219 26.5097 30.038 26.5196 29.9494C26.4803 29.8115 26.5392 29.7131 26.6666 29.6441L31.4411 26.9662L26.7646 16.2644C26.7352 16.2053 26.7352 16.1364 26.745 16.0773L27.6176 12.0998C27.7352 11.5485 27.6862 11.0562 27.4509 10.5541L26.4019 8.28971C26.098 7.63993 25.6078 7.20673 24.9313 6.99014C22.2548 6.14344 13.2058 3.73135 9.3823 8.2208C8.52936 9.29393 7.95093 10.2982 7.45093 11.578C6.87249 13.232 6.73524 14.5316 7.02936 15.8017C7.22544 16.4711 7.44112 16.9339 8.03916 17.3868C8.07838 17.4163 8.10779 17.4458 8.1274 17.4852L13.8039 28.2855L13.7941 28.3052ZM21.7745 33.0309H21.7647L18.5588 32.5977C18.2843 32.5584 18.049 32.4599 17.8333 32.2925L13.3725 28.7384C13.3725 28.7384 13.3137 28.6793 13.2941 28.6399L7.61759 17.8396C6.93132 17.2982 6.65681 16.7173 6.44112 15.969C6.1274 14.5612 6.26465 13.1533 6.8921 11.3811C7.41171 10.0225 8.01955 8.96904 8.92151 7.84668C12.9999 3.06187 22.3529 5.54288 25.1176 6.41911C25.9509 6.68493 26.5882 7.24611 26.9509 8.04358L27.9999 10.308C28.2941 10.9381 28.3627 11.5682 28.2058 12.2377L27.3529 16.1167L32.098 26.9761C32.1568 27.1238 32.098 27.2813 31.9705 27.36L27.098 30.0872C27.0294 30.3825 26.7647 30.6779 26.6274 30.8157C26.3921 31.0619 25.5784 31.7806 24.5196 31.623C24.3627 32.0267 24.0784 32.4402 23.0196 32.4599C22.9999 32.5091 22.9705 32.5583 22.9313 32.6076C22.7254 32.8636 22.3039 33.0112 21.7843 33.0112L21.7745 33.0309Z" fill="#0F9E2A"/>
<path fill-rule="evenodd" clip-rule="evenodd" d="M31.0001 27.4684L28.1569 25.2236L25.9804 21.8369L24.0785 19.917C23.1569 18.9916 22.6765 17.8791 22.6275 16.5696L22.5393 14.1674L18.4216 13.7539L16.7942 15.7131C16.353 16.2447 15.6961 16.5401 15.0295 16.3333L13.4903 15.8608C13.3432 15.8115 13.2354 15.7131 13.1863 15.5654C13.1373 15.4177 13.1471 15.2701 13.2354 15.1421L16.4412 10.0717C16.6667 9.71731 17.0001 9.4318 17.4216 9.36288L24.2648 8.29959C24.4216 8.27006 24.5491 8.34882 24.6667 8.45712L28.804 12.1097C32.402 15.2897 30.6961 15.2307 34.2746 16.0971C35.3628 16.353 35.9412 16.6287 37.5589 17.2687C40.0687 22.2602 36.304 25.9227 32.6177 27.0746C32.6177 27.0746 31.3236 27.6062 31.0001 27.4684Z" fill="#121212"/>
<path fill-rule="evenodd" clip-rule="evenodd" d="M31.1373 27.1828C31.3236 27.2025 31.9412 27.0154 32.5 26.789C34.3726 26.2081 36.6863 24.7806 37.6373 22.5358C38.2942 20.9704 38.1961 19.277 37.3334 17.5049L36.5785 17.1997C35.5883 16.8059 35.0491 16.5893 34.2059 16.3924C31.9118 15.841 31.6961 15.6441 30.9118 14.699C30.5099 14.2166 29.902 13.488 28.6079 12.3361L24.4706 8.68351C24.4216 8.63429 24.353 8.59491 24.3138 8.59491L17.4706 9.6582C17.0687 9.71727 16.8138 10.0422 16.6961 10.2292L13.4902 15.2995C13.4608 15.3488 13.451 15.398 13.4706 15.4472C13.4902 15.5063 13.5197 15.5358 13.5785 15.5555L15.1177 16.0281C15.6079 16.1856 16.1569 15.9789 16.5589 15.5063L18.1863 13.5471C18.2549 13.4683 18.353 13.4289 18.451 13.4388L22.5687 13.8523C22.7157 13.8621 22.8334 13.9901 22.8432 14.1378L22.9314 16.5499C22.9706 17.7904 23.4216 18.8143 24.2942 19.6905L26.1961 21.6005L28.3824 24.9972L31.1373 27.173V27.1828ZM31.1471 27.7834C31.0491 27.7834 30.9608 27.7735 30.8824 27.7341C30.853 27.7243 30.8334 27.7145 30.8138 27.6948L27.9608 25.45C27.9608 25.45 27.9118 25.4008 27.8922 25.3713L25.7157 21.9845L23.853 20.1237C22.8824 19.1491 22.3628 17.9479 22.3138 16.5696L22.2353 14.4233L18.5393 14.059L17.0099 15.8903C16.4608 16.5597 15.6569 16.8354 14.9314 16.609L13.3922 16.1364C13.1569 16.0675 12.9804 15.8903 12.8922 15.6638C12.804 15.4275 12.8334 15.1913 12.9706 14.9747L16.1765 9.90433C16.4706 9.43176 16.8922 9.1364 17.3628 9.05764L24.2059 7.99434C24.5393 7.93527 24.7746 8.15187 24.853 8.22079L28.9902 11.8734C30.3236 13.0548 30.951 13.8129 31.3628 14.3052C32.0393 15.1223 32.1569 15.27 34.3334 15.7918C35.2157 15.9986 35.7746 16.225 36.7942 16.6287L37.6569 16.9732C37.7255 17.0028 37.7844 17.052 37.8138 17.1209C38.7942 19.0703 38.9216 21.0197 38.1863 22.7623C37.1569 25.2039 34.6765 26.7398 32.6961 27.36C32.2844 27.5274 31.5785 27.7834 31.1373 27.7834H31.1471Z" fill="#0F9E2A"/>
<path fill-rule="evenodd" clip-rule="evenodd" d="M24.3332 31.5935C22.6666 31.5345 21.3332 31.0717 20.245 30.1758C19.2058 29.3094 17.343 27.2419 16.9411 26.7595C16.8332 26.6315 16.843 26.4445 16.9705 26.3362C17.0979 26.2279 17.2842 26.2476 17.3921 26.3657C17.794 26.8383 19.6078 28.8664 20.6176 29.7032C21.5979 30.5106 22.8136 30.9339 24.343 30.9831C24.5097 30.9831 24.6372 31.1308 24.6372 31.2982C24.6372 31.4656 24.4999 31.5935 24.3332 31.5935Z" fill="#0F9E2A"/>
<path fill-rule="evenodd" clip-rule="evenodd" d="M26.8038 30.2447H26.6666C25.3921 30.225 24.0685 30.2053 22.8627 29.1519C21.8431 28.2559 19.0685 25.706 18.4999 25.0858C18.3823 24.9578 18.3921 24.7707 18.5195 24.6624C18.6372 24.5541 18.8333 24.5541 18.9509 24.6821C19.5097 25.2925 22.2548 27.8129 23.2646 28.699C24.3038 29.6047 25.4607 29.6244 26.6764 29.6441H26.8038C26.9705 29.6441 27.1078 29.782 27.098 29.9493C27.098 30.1167 26.9607 30.2545 26.794 30.2545L26.8038 30.2447Z" fill="#0F9E2A"/>
<path fill-rule="evenodd" clip-rule="evenodd" d="M29.8726 28.6991H29.8432C28.0491 28.5022 26.1961 28.2166 24.8334 27.0254C23.7451 26.0802 21.3334 23.9241 20.8628 23.3038C20.7647 23.1759 20.7844 22.979 20.9216 22.8805C21.0491 22.782 21.2451 22.8017 21.3432 22.9297C21.7255 23.4318 23.8432 25.3615 25.2353 26.5626C26.4706 27.6358 28.1569 27.8918 29.9216 28.0887C30.0883 28.1084 30.2059 28.256 30.1863 28.4234C30.1667 28.5809 30.0393 28.6892 29.8824 28.6892L29.8726 28.6991Z" fill="#0F9E2A"/>
<path fill-rule="evenodd" clip-rule="evenodd" d="M22.755 32.4894H22.7256C21.353 32.3516 19.6373 32.066 18.5687 31.1209C17.6863 30.3431 16.2452 28.9746 15.7746 28.4528C15.6667 28.3248 15.6765 28.1378 15.7942 28.0295C15.9216 27.9212 16.1079 27.9212 16.2256 28.0492C16.6667 28.5414 18.1079 29.9001 18.9707 30.668C19.9118 31.495 21.5001 31.751 22.7942 31.8888C22.9609 31.9085 23.0785 32.0562 23.0589 32.2236C23.0393 32.3811 22.9118 32.4992 22.755 32.4992V32.4894Z" fill="#0F9E2A"/>
<path fill-rule="evenodd" clip-rule="evenodd" d="M41.3431 16.3825L38.6079 14.7974C37.6471 14.3938 36.9314 14.3839 35.9118 14.571C34.3333 14.9648 33.2059 15.7032 31.9706 16.7369C31.7647 16.924 31.4902 17.18 31.2941 17.3769C29.5196 19.1589 28.0784 21.5414 27.2843 23.924C26.8726 25.1448 26.6667 26.2475 26.5882 27.5175C26.549 29.4177 26.8431 31.2587 28.451 32.4796L31.1765 34.0548L41.3529 16.3727L41.3431 16.3825Z" fill="#61FF7E"/>
<path fill-rule="evenodd" clip-rule="evenodd" d="M37.0294 14.7483C36.6961 14.7483 36.3529 14.7876 35.9706 14.8664C34.4216 15.2602 33.3333 15.9888 32.1765 16.9733C31.9804 17.1505 31.7157 17.3967 31.5196 17.5936C29.8039 19.3165 28.3726 21.6597 27.5784 24.0225C27.1863 25.204 26.9706 26.2869 26.8922 27.5373C26.8628 29.083 27.0294 31.0225 28.6373 32.2335L31.0686 33.6414L40.9412 16.4909L38.4706 15.0633C37.9412 14.8467 37.4902 14.7581 37.0294 14.7581V14.7483ZM31.1667 34.3601C31.1177 34.3601 31.0588 34.3502 31.0196 34.3207L28.2941 32.7455C26.4412 31.3376 26.2451 29.211 26.2843 27.5176C26.3726 26.1983 26.5882 25.0661 27 23.8355C27.8235 21.384 29.3137 18.9522 31.0882 17.1702C31.2941 16.9635 31.5686 16.7075 31.7745 16.5204C32.8333 15.6245 34.0588 14.7286 35.8431 14.2855C36.8628 14.0985 37.6569 14.0788 38.7353 14.5317L41.5 16.1266C41.5686 16.166 41.6177 16.2349 41.6373 16.3137C41.6569 16.3924 41.6373 16.481 41.6078 16.55L31.4314 34.2222C31.3726 34.3207 31.2745 34.3699 31.1667 34.3699V34.3601Z" fill="#0F9E2A"/>
<path fill-rule="evenodd" clip-rule="evenodd" d="M36.5 33.7004C40.4804 31.3966 43.6961 25.7946 43.6961 21.1871C43.6961 16.5795 40.4804 14.7089 36.5 17.0127C32.5294 19.3164 29.304 24.9283 29.304 29.5359C29.304 34.1435 32.5294 36.0141 36.5 33.7103V33.7004Z" fill="#121212"/>
<path fill-rule="evenodd" clip-rule="evenodd" d="M39.7157 16.3234C38.7843 16.3234 37.7451 16.6483 36.6569 17.2686C32.7745 19.5232 29.6078 25.0168 29.6078 29.526C29.6078 31.6427 30.3039 33.2081 31.5588 33.9465C32.8235 34.6751 34.5196 34.4978 36.3431 33.4444C40.2255 31.1898 43.3922 25.6961 43.3922 21.187C43.3922 19.0703 42.6961 17.5049 41.4314 16.7665C40.9216 16.4711 40.3431 16.3234 39.7059 16.3234H39.7157ZM33.2843 34.9999C32.549 34.9999 31.8627 34.8227 31.2647 34.4781C29.8039 33.6315 29 31.879 29 29.5358C29 24.8396 32.2941 19.0998 36.3529 16.7566C38.3726 15.585 40.2843 15.4078 41.7451 16.2545C43.2059 17.1012 44.0098 18.8537 44.0098 21.1969C44.0098 25.8931 40.7157 31.623 36.6569 33.976C35.4804 34.6652 34.3333 35.0098 33.2941 35.0098L33.2843 34.9999Z" fill="#0F9E2A"/>
<path fill-rule="evenodd" clip-rule="evenodd" d="M15.3333 29.8607L13.2254 29.8017C12.9019 29.7918 12.6274 29.6835 12.3921 29.4669L12.0686 29.1716C11.7842 28.9156 11.6372 28.5808 11.6372 28.1969V27.3699L11.4607 27.3206C11.1862 27.2419 10.9705 27.1041 10.7941 26.8875L10.2058 26.1687C10.0195 25.9423 9.93131 25.6863 9.9117 25.391L9.89209 24.8101L9.67641 24.7313C9.35288 24.6132 9.11758 24.4163 8.94111 24.1209L8.56856 23.5007C8.32346 23.097 8.22543 22.6737 8.25484 22.2011L8.27444 21.9353C7.47052 21.5513 6.88229 20.7735 6.9117 19.7693V19.1294L6.99994 17.7806C7.07837 17.0323 7.34307 16.8748 7.95092 16.8256C8.22543 16.8059 8.53915 16.8354 8.79405 16.9536L9.12739 17.1111C9.4117 17.2391 9.56856 17.3868 9.78425 17.6723C9.96072 17.9184 10.0588 18.1645 10.0882 18.4697L10.1078 18.6666V19.3164L10.5097 19.4936L10.9411 19.8776C11.3039 20.1927 11.4803 20.6062 11.4705 21.0886L11.4411 22.3094C11.6274 22.4078 11.7842 22.4866 11.9705 22.6343L12.4019 22.9789C12.7744 23.2742 12.9999 23.8551 12.9803 24.3178L12.9313 25.834C13.4411 25.8537 13.6666 26.0309 14.1274 26.405C14.4411 26.661 14.6274 26.9859 14.6764 27.3797L14.8627 28.6399L15.3431 29.8607H15.3333Z" fill="#121212"/>
<path fill-rule="evenodd" clip-rule="evenodd" d="M8.11754 17.1111C8.11754 17.1111 8.0293 17.1111 7.98028 17.1111C7.5195 17.1505 7.37244 17.1899 7.30381 17.8003L7.21558 19.7595C7.19597 20.5767 7.63715 21.2757 8.41166 21.6498C8.5195 21.699 8.58813 21.8172 8.57832 21.9452L8.55871 22.211C8.5293 22.6245 8.61754 22.9789 8.83322 23.3432L9.20577 23.9635C9.34303 24.1997 9.5293 24.3474 9.7842 24.436L9.99989 24.5148C10.1175 24.5542 10.196 24.6625 10.196 24.7905L10.2156 25.3615C10.2156 25.5978 10.294 25.7848 10.4411 25.962L11.0293 26.6808C11.1666 26.8481 11.3234 26.9564 11.5391 27.0155L11.7156 27.0647C11.843 27.1041 11.9411 27.2222 11.9411 27.3601V28.1871C11.9411 28.4824 12.0489 28.7384 12.2744 28.9353L12.5979 29.2307C12.7842 29.3981 12.9901 29.4867 13.2352 29.4867L14.8822 29.5359L14.5685 28.7384L14.3626 27.4093C14.3136 27.0943 14.1666 26.8383 13.9215 26.6315C13.4705 26.2673 13.3038 26.1491 12.9019 26.1294C12.7352 26.1294 12.6077 25.9817 12.6175 25.8144L12.6666 24.2982C12.6764 23.9044 12.4803 23.422 12.2058 23.2054L11.7744 22.8608C11.6077 22.7328 11.4705 22.6639 11.2842 22.5654C11.1764 22.5064 11.1175 22.3981 11.1175 22.2799L11.1469 21.0591C11.1568 20.6751 11.0195 20.3404 10.7254 20.0943L10.3234 19.7398L9.96067 19.5725C9.85283 19.5232 9.7842 19.4149 9.7842 19.2968L9.7646 18.4698C9.74499 18.2237 9.66656 18.0267 9.5195 17.8298C9.32342 17.564 9.20577 17.4656 8.98028 17.3671L8.63715 17.2096C8.49009 17.1407 8.2842 17.1013 8.08813 17.1013L8.11754 17.1111ZM15.3332 30.1561L13.2254 30.0971C12.8332 30.0872 12.4803 29.9494 12.196 29.6836L11.8724 29.3882C11.5293 29.0732 11.343 28.6597 11.343 28.1871V27.5865C11.0293 27.4881 10.7744 27.3207 10.5685 27.0647L9.98028 26.346C9.75479 26.0605 9.63715 25.7553 9.61754 25.391L9.58813 25.0169C9.19597 24.8791 8.91166 24.6329 8.69597 24.2785L8.32342 23.6681C8.04891 23.2054 7.93126 22.7229 7.96067 22.1913V22.1224C7.08813 21.6203 6.58813 20.7539 6.60773 19.7694L6.62734 19.1294L6.70577 17.7708C6.80381 16.8059 7.23519 16.5893 7.93126 16.5204C8.2842 16.4909 8.64695 16.55 8.92146 16.6779L9.2646 16.8355C9.62734 17.0028 9.81362 17.1899 10.0391 17.4853C10.2548 17.7806 10.3724 18.0858 10.4019 18.4402L10.4215 18.6372V19.1294L10.6469 19.2279C10.6764 19.2377 10.696 19.2574 10.7254 19.2771L11.1568 19.6611C11.5881 20.0352 11.8038 20.5373 11.7842 21.1083L11.7548 22.1322C11.892 22.211 12.0195 22.2898 12.1666 22.3981L12.5979 22.7426C13.0783 23.1168 13.3038 23.8256 13.294 24.3277L13.2548 25.5584C13.6862 25.6372 13.9509 25.8538 14.3234 26.1688C14.696 26.4642 14.9215 26.858 14.9901 27.3305L15.1764 28.5907L15.6371 29.7525C15.6764 29.8509 15.6666 29.9494 15.6077 30.038C15.5489 30.1168 15.4607 30.166 15.3626 30.166L15.3332 30.1561Z" fill="#0F9E2A"/>
<path fill-rule="evenodd" clip-rule="evenodd" d="M7.27457 17.6526L8.18634 18.3614L8.0883 19.9465C8.0883 19.9465 8.03928 19.9958 8.00006 19.9958C7.96085 19.9958 7.88242 19.917 7.853 19.8973L7.48046 19.5133C7.36281 19.405 7.23536 19.2672 7.24516 19.0998L7.28438 17.6526H7.27457Z" fill="black"/>
<path fill-rule="evenodd" clip-rule="evenodd" d="M7.55894 18.263L7.53933 19.1097C7.53933 19.1097 7.58835 19.1983 7.68639 19.2967L7.81384 19.4247L7.87267 18.4993L7.55894 18.2531V18.263ZM7.99031 20.301C7.84325 20.301 7.73541 20.2124 7.63737 20.1139L7.25502 19.7299C7.12757 19.602 6.92169 19.3952 6.93149 19.09L6.97071 17.6329C6.97071 17.5147 7.03933 17.4163 7.14718 17.3671C7.24522 17.3178 7.37267 17.3277 7.4609 17.3966L8.37267 18.1055C8.4511 18.1645 8.50012 18.263 8.49031 18.3614L8.39227 19.9465C8.38247 20.1041 8.26482 20.2616 8.01973 20.2813H8.00012L7.99031 20.301Z" fill="#0F9E2A"/>
<path fill-rule="evenodd" clip-rule="evenodd" d="M8.5391 20.0942L9.58812 20.8031V22.1716C9.58812 22.1716 9.56851 22.2307 9.5489 22.2602C9.5293 22.2799 9.49988 22.2897 9.46067 22.2897H9.33322C9.11753 22.2897 8.94106 22.2011 8.80381 22.0436L8.70577 21.9353C8.58812 21.7975 8.5293 21.6399 8.5293 21.4627V20.1041L8.5391 20.0942Z" fill="black"/>
<path fill-rule="evenodd" clip-rule="evenodd" d="M8.83343 20.6653V21.4628C8.83343 21.5711 8.86284 21.6498 8.93147 21.7385L9.02951 21.8566C9.09813 21.9354 9.18637 21.9846 9.28441 21.9944V20.9804L8.83343 20.685V20.6653ZM9.46088 22.5852H9.32362C9.0197 22.5852 8.7648 22.4572 8.56872 22.2307L8.47068 22.1224C8.30402 21.9255 8.22559 21.6991 8.22559 21.4529V20.0943C8.22559 19.9761 8.29421 19.8777 8.39225 19.8285C8.49029 19.7792 8.60794 19.7792 8.70598 19.8482L9.755 20.5472C9.84323 20.6062 9.89225 20.6949 9.89225 20.8032V22.1716C9.89225 22.2799 9.84323 22.3882 9.755 22.467C9.67657 22.5458 9.56872 22.5852 9.46088 22.5852Z" fill="#0F9E2A"/>
<path fill-rule="evenodd" clip-rule="evenodd" d="M10.304 23.0479L11.3628 23.8552V25.1154C11.3628 25.1154 11.3432 25.1744 11.3236 25.204C11.304 25.2237 11.2745 25.2335 11.2353 25.2335H11.1079C10.902 25.2335 10.7157 25.1449 10.5785 24.9874L10.4804 24.8791C10.3628 24.7412 10.304 24.5837 10.304 24.4065V23.0479Z" fill="black"/>
<path fill-rule="evenodd" clip-rule="evenodd" d="M10.5981 23.6582V24.4064C10.5981 24.5147 10.6275 24.5935 10.6961 24.6821L10.7942 24.7904C10.8628 24.8691 10.951 24.9184 11.0491 24.9282V24.0028L10.5981 23.6582ZM11.2353 25.5386H11.0981C10.7942 25.5386 10.5393 25.4106 10.3432 25.1842L10.2451 25.0759C10.0785 24.8888 9.99023 24.6624 9.99023 24.4064V23.0478C9.99023 22.9296 10.0687 22.8312 10.1667 22.7721C10.2647 22.7229 10.3922 22.7327 10.4804 22.8016L11.5295 23.6089C11.6079 23.668 11.6471 23.7566 11.6471 23.8551V25.1153C11.6471 25.2236 11.5981 25.3319 11.5196 25.4106C11.4412 25.4894 11.3334 25.5386 11.2255 25.5386H11.2353Z" fill="#0F9E2A"/>
<path fill-rule="evenodd" clip-rule="evenodd" d="M12.0393 26.474L13.0883 27.2419L13.0001 28.3348C13.0001 28.3938 12.9413 28.4431 12.8824 28.4431H12.7452C12.5295 28.4431 12.353 28.3544 12.2158 28.1969C12.0981 28.0591 12.0589 27.685 12.0589 27.5078V26.474H12.0393Z" fill="black"/>
<path fill-rule="evenodd" clip-rule="evenodd" d="M12.3432 27.0647V27.4978C12.3432 27.6948 12.3922 27.931 12.4314 27.9901C12.5098 28.0787 12.5981 28.1279 12.7059 28.1378L12.7647 27.3895L12.3334 27.0745L12.3432 27.0647ZM12.8824 28.7384H12.7353C12.4412 28.7384 12.1765 28.6104 11.9804 28.3839C11.7451 28.1181 11.7451 27.5569 11.7451 27.4978V26.4739C11.7451 26.3558 11.8039 26.2475 11.902 26.1983C12 26.149 12.1275 26.1589 12.2157 26.218L13.2647 26.9859C13.353 27.045 13.3922 27.1533 13.3922 27.2616L13.3039 28.3544C13.2843 28.571 13.0981 28.7384 12.8824 28.7384Z" fill="#0F9E2A"/>
<path fill-rule="evenodd" clip-rule="evenodd" d="M10.108 19.3164C9.89227 19.3361 9.7158 19.3558 9.57854 19.3952C9.2256 19.4739 8.77462 19.6019 8.55893 19.8973C8.34325 20.1828 8.31384 21.5218 8.28442 21.9353C8.24521 20.1631 7.89227 19.2081 10.1178 19.3164H10.108Z" fill="#121212"/>
<path fill-rule="evenodd" clip-rule="evenodd" d="M8.27462 22.2405C8.11776 22.2405 7.9805 22.1027 7.9805 21.9452C7.9805 21.7384 7.9707 21.5317 7.9609 21.3446C7.92168 20.5176 7.89227 19.8678 8.31384 19.4346C8.64717 19.0999 9.20599 18.9719 10.1276 19.0113C10.2844 19.0113 10.4119 19.1491 10.4119 19.3066C10.4119 19.4642 10.2942 19.602 10.1374 19.6118C9.94129 19.6315 9.77462 19.6512 9.63737 19.6808C9.4707 19.7201 8.9805 19.8186 8.79423 20.0746C8.67658 20.2518 8.61776 21.2462 8.59815 21.6203C8.59815 21.7581 8.58835 21.8763 8.57854 21.955C8.56874 22.1125 8.43148 22.2307 8.27462 22.2307V22.2405Z" fill="#0F9E2A"/>
<path fill-rule="evenodd" clip-rule="evenodd" d="M14.4413 13.0942L15.2746 13.1927C15.353 13.1927 15.4119 13.2419 15.4511 13.301C15.6962 13.7046 14.1471 15.27 13.8726 15.5851L12.853 15.3783C13.1962 14.5907 13.5785 13.8523 14.2158 13.1927C14.2844 13.1238 14.353 13.0745 14.4413 13.0844V13.0942Z" fill="black"/>
<path fill-rule="evenodd" clip-rule="evenodd" d="M13.2842 15.1617L13.7548 15.2601C13.7548 15.2601 13.8136 15.1912 13.8528 15.1617C14.794 14.1378 15.0979 13.6849 15.1567 13.488L14.4411 13.4092C13.9018 13.9704 13.5587 14.5808 13.2744 15.1715L13.2842 15.1617ZM13.8626 15.8902C13.8626 15.8902 13.8234 15.8902 13.8038 15.8902L12.794 15.6835C12.7058 15.6638 12.6273 15.6047 12.5881 15.526C12.5489 15.4472 12.5391 15.3488 12.5881 15.27C12.9117 14.5218 13.3136 13.7243 14.0097 12.9957C14.1567 12.8481 14.3136 12.7791 14.4803 12.7988L15.3136 12.8874C15.4803 12.9071 15.6273 12.9957 15.7156 13.1336C15.9999 13.5865 15.4607 14.3052 14.3038 15.5555C14.2156 15.654 14.1469 15.7327 14.0979 15.782C14.0391 15.8509 13.9607 15.8902 13.8724 15.8902H13.8626Z" fill="#0F9E2A"/>
<path fill-rule="evenodd" clip-rule="evenodd" d="M11.4314 22.3094C10.9412 22.3587 10.3432 22.5162 10.1177 22.9395C9.97063 23.2349 9.94122 24.4065 9.902 24.8003C9.85298 23.5204 9.50004 22.211 11.4314 22.3094Z" fill="#121212"/>
<path fill-rule="evenodd" clip-rule="evenodd" d="M9.90203 25.1054H9.89222C9.73536 25.1054 9.60791 24.9774 9.5981 24.8101C9.5981 24.6624 9.5785 24.5049 9.5785 24.3572C9.52948 23.6385 9.48046 22.9001 9.94124 22.4275C10.255 22.1125 10.755 21.9648 11.451 22.0042C11.6079 22.0042 11.7354 22.142 11.7354 22.2995C11.7354 22.457 11.6177 22.5949 11.4608 22.6146C10.8922 22.6736 10.5099 22.841 10.3824 23.0871C10.304 23.2447 10.255 24.0225 10.2256 24.3966C10.2158 24.5738 10.2059 24.7412 10.1863 24.8396C10.1667 24.9971 10.0393 25.1153 9.89222 25.1153L9.90203 25.1054Z" fill="#0F9E2A"/>
<path fill-rule="evenodd" clip-rule="evenodd" d="M12.8922 25.834C11.7157 25.9128 11.7157 26.4051 11.6373 27.4093C11.6078 26.1885 11.5 25.7848 12.8922 25.834Z" fill="#121212"/>
<path fill-rule="evenodd" clip-rule="evenodd" d="M11.6372 27.6652C11.4804 27.6652 11.3431 27.5668 11.3431 27.4092V27.1828C11.3235 26.5626 11.3137 26.1195 11.6078 25.8242C11.8431 25.5879 12.2157 25.4993 12.9117 25.5288C13.0686 25.5288 13.1961 25.6666 13.2059 25.8242C13.2059 25.9915 13.0882 26.1195 12.9215 26.1294C12.0392 26.1884 12.0196 26.405 11.951 27.3502C11.951 27.36 11.951 27.3699 11.951 27.3896C11.9215 27.5372 11.7941 27.6652 11.6568 27.6652H11.6372Z" fill="#0F9E2A"/>
<path fill-rule="evenodd" clip-rule="evenodd" d="M18.0686 12.7595C18.1568 13.0155 18.4999 13.6653 18.0195 14.256C18.3921 13.872 18.7156 13.8228 19.1274 13.8228C18.5097 13.6653 18.3235 13.1336 18.0784 12.7595H18.0686Z" fill="#121212"/>
<path fill-rule="evenodd" clip-rule="evenodd" d="M18.0097 14.5612C17.9411 14.5612 17.8627 14.5317 17.8136 14.4825C17.696 14.3742 17.6764 14.1871 17.7842 14.0591C18.0783 13.7047 17.9607 13.3207 17.8234 12.9564L17.7842 12.858C17.7352 12.7103 17.794 12.5528 17.9313 12.4839C18.0685 12.415 18.2352 12.4543 18.3234 12.5823C18.3725 12.6611 18.4215 12.7399 18.4705 12.8285C18.647 13.1337 18.8234 13.429 19.196 13.5176C19.343 13.557 19.4411 13.6948 19.4215 13.8524C19.4019 14 19.2744 14.1182 19.1176 14.1182C18.745 14.1477 18.5097 14.1674 18.2352 14.4529C18.1764 14.5218 18.098 14.5514 18.0195 14.5514L18.0097 14.5612Z" fill="#0F9E2A"/>
<path fill-rule="evenodd" clip-rule="evenodd" d="M23.5391 13.6456C23.1176 13.8721 22.9705 14.0198 21.8921 14.0985C22.7646 14.1871 22.4705 14.4825 22.5784 15.0141C22.6078 14.1773 23.098 14.0296 23.549 13.6456H23.5391Z" fill="#121212"/>
<path fill-rule="evenodd" clip-rule="evenodd" d="M22.5685 15.3094C22.4215 15.3094 22.294 15.211 22.2744 15.0633C22.245 14.9156 22.245 14.7778 22.245 14.6596C22.245 14.5907 22.245 14.512 22.2352 14.4824C22.2352 14.4824 22.1666 14.4332 21.8626 14.4037C21.7058 14.3938 21.5881 14.256 21.5881 14.0985C21.5881 13.9409 21.7156 13.8129 21.8724 13.8031C22.7548 13.7342 22.9509 13.6357 23.2548 13.4585L23.4019 13.3797C23.5391 13.3108 23.7058 13.3502 23.794 13.4782C23.8823 13.6062 23.8626 13.7834 23.745 13.8819C23.647 13.9705 23.5391 14.0492 23.4411 14.1181C23.0979 14.3643 22.9019 14.512 22.8823 15.0239C22.8823 15.1716 22.7548 15.2996 22.6077 15.3193H22.5881L22.5685 15.3094Z" fill="#0F9E2A"/>
</g>
<defs>
<clipPath id="clip0_17_3590">
<rect width="44" height="35" fill="white"/>
</clipPath>
</defs>
</svg>
