<svg width="169" height="109" viewBox="0 0 169 109" fill="none" xmlns="http://www.w3.org/2000/svg">
<path d="M88.8901 28.84L137.51 53.56L88.8901 79.16V108.07L157.26 72.1C172.36 64.16 172.21 42.49 157 34.76L88.8901 0.139999V28.85V28.84Z" fill="url(#paint0_linear_61_18)"/>
<path d="M157.01 34.75L88.8999 0.130005V28.84L137.52 53.56H137.5C158.01 64.28 160.26 67.58 157.27 72.1C172.37 64.16 172.22 42.49 157.01 34.76V34.75Z" fill="url(#paint1_linear_61_18)"/>
<path d="M79.64 79.36L31.02 54.64L79.64 29.04V0.130005L11.27 36.1C-3.83003 44.04 -3.68002 65.71 11.53 73.44L79.64 108.06V79.35V79.36Z" fill="url(#paint2_linear_61_18)"/>
<path d="M11.53 73.44L79.64 108.06V79.35L31.02 54.63H31.0399C10.5299 43.91 8.27997 40.61 11.27 36.09C-3.83003 44.03 -3.68002 65.7 11.53 73.43V73.44Z" fill="url(#paint3_linear_61_18)"/>
<defs>
<linearGradient id="paint0_linear_61_18" x1="132.68" y1="30.85" x2="51.0701" y2="75.64" gradientUnits="userSpaceOnUse">
<stop stop-color="#00D449"/>
<stop offset="0.04" stop-color="#00D74B"/>
<stop offset="0.38" stop-color="#00ED5C"/>
<stop offset="0.71" stop-color="#00FA67"/>
<stop offset="1" stop-color="#00FF6B"/>
</linearGradient>
<linearGradient id="paint1_linear_61_18" x1="159.5" y1="9.00001" x2="98.7999" y2="54.48" gradientUnits="userSpaceOnUse">
<stop stop-color="#00D349"/>
<stop offset="0.05" stop-color="#00D74C"/>
<stop offset="0.39" stop-color="#00ED5D"/>
<stop offset="0.71" stop-color="#00FA67"/>
<stop offset="1" stop-color="#00FF6B"/>
</linearGradient>
<linearGradient id="paint2_linear_61_18" x1="35.85" y1="77.35" x2="117.46" y2="32.56" gradientUnits="userSpaceOnUse">
<stop stop-color="#00D449"/>
<stop offset="0.04" stop-color="#00D74B"/>
<stop offset="0.38" stop-color="#00ED5C"/>
<stop offset="0.71" stop-color="#00FA67"/>
<stop offset="1" stop-color="#00FF6B"/>
</linearGradient>
<linearGradient id="paint3_linear_61_18" x1="9.02997" y1="99.2" x2="69.73" y2="53.72" gradientUnits="userSpaceOnUse">
<stop stop-color="#00D349"/>
<stop offset="0.05" stop-color="#00D74C"/>
<stop offset="0.39" stop-color="#00ED5D"/>
<stop offset="0.71" stop-color="#00FA67"/>
<stop offset="1" stop-color="#00FF6B"/>
</linearGradient>
</defs>
</svg>
