<?xml version="1.0" encoding="UTF-8"?>
<svg id="Layer_1" xmlns="http://www.w3.org/2000/svg" xmlns:xlink="http://www.w3.org/1999/xlink" version="1.1" viewBox="0 0 1006 214">
  <!-- Generator: Adobe Illustrator 29.3.1, SVG Export Plug-In . SVG Version: 2.1.0 Build 151)  -->
  <defs>
    <style>
      .st0 {
        fill: url(#linear-gradient2);
      }

      .st1 {
        fill: url(#linear-gradient1);
      }

      .st2 {
        fill: url(#linear-gradient3);
      }

      .st3 {
        fill: url(#linear-gradient);
      }

      .st4 {
        fill: #fff;
      }
    </style>
    <linearGradient id="linear-gradient" x1="771.68" y1="82.85" x2="690.07" y2="127.64" gradientUnits="userSpaceOnUse">
      <stop offset="0" stop-color="#00d449"/>
      <stop offset=".04" stop-color="#00d74b"/>
      <stop offset=".38" stop-color="#00ed5c"/>
      <stop offset=".71" stop-color="#00fa67"/>
      <stop offset="1" stop-color="#00ff6b"/>
    </linearGradient>
    <linearGradient id="linear-gradient1" x1="798.5" y1="61" x2="737.8" y2="106.48" gradientUnits="userSpaceOnUse">
      <stop offset="0" stop-color="#00d349"/>
      <stop offset=".05" stop-color="#00d74c"/>
      <stop offset=".39" stop-color="#00ed5d"/>
      <stop offset=".71" stop-color="#00fa67"/>
      <stop offset="1" stop-color="#00ff6b"/>
    </linearGradient>
    <linearGradient id="linear-gradient2" x1="1873.27" y1="48.37" x2="1791.66" y2="93.16" gradientTransform="translate(2548.12 177.72) rotate(-180)" xlink:href="#linear-gradient"/>
    <linearGradient id="linear-gradient3" x1="1900.09" y1="26.52" x2="1839.39" y2="72" gradientTransform="translate(2548.12 177.72) rotate(-180)" xlink:href="#linear-gradient1"/>
  </defs>
  <path class="st4" d="M54.17,161.82c-7.26,0-14.15-1.15-20.69-3.42s-12.29-5.61-17.27-10.02c-4.98-4.41-8.96-9.77-11.94-16.11C1.27,125.96-.22,118.67-.22,110.42V.34h25.59v53.33h28.16c13.09,0,23.75,2.67,32.01,8,8.25,5.33,14.29,12.01,18.12,20.05,3.84,8.04,5.57,16.72,5.23,26.02-.35,9.32-2.67,17.98-6.93,26.02-4.27,8.04-10.42,14.72-18.45,20.05-8.04,5.33-17.81,8-29.34,8ZM25.59,111.91c0,3.54.78,6.96,2.34,10.22,1.56,3.28,3.66,6.09,6.28,8.44,2.64,2.34,5.66,4.24,9.08,5.64,3.4,1.42,6.96,2.14,10.66,2.14,6.25,0,11.51-1.53,15.78-4.58s7.53-6.82,9.81-11.3c2.27-4.48,3.52-9.39,3.75-14.72.21-5.33-.61-10.24-2.47-14.72-1.84-4.48-4.76-8.25-8.75-11.3-3.98-3.06-9.1-4.58-15.35-4.58h-31.14v34.77Z"/>
  <path class="st4" d="M117.53,160.33v-77.65c0-8.52,2.62-15.5,7.88-20.9s13.02-8.11,23.26-8.11h31.99v23.47h-28.16c-3.42,0-5.83.78-7.26,2.34-1.42,1.56-2.14,3.63-2.14,6.18v74.66h-25.59Z"/>
  <path class="st4" d="M293.3,123.01c-1.42,5.26-3.59,10.28-6.51,15.03-2.92,4.76-6.61,8.92-11.09,12.48-4.48,3.56-9.79,6.35-15.9,8.42-6.11,2.07-13.07,3.09-20.9,3.09-9.81,0-18.28-1.56-25.38-4.69-7.12-3.12-12.99-7.29-17.6-12.48-4.62-5.19-8.04-11.09-10.24-17.71-2.2-6.61-3.3-13.4-3.3-20.36s1.09-13.77,3.3-20.38c2.2-6.61,5.62-12.52,10.24-17.71,4.62-5.19,10.49-9.34,17.6-12.48,7.1-3.12,15.57-4.69,25.38-4.69,9.24,0,17.27,1.56,24.11,4.69,6.82,3.14,12.46,7.29,16.96,12.48,4.48,5.19,7.81,11.09,10.02,17.71,2.2,6.61,3.32,13.4,3.32,20.38,0,1.27-.09,2.59-.23,3.94s-.28,2.67-.42,3.94h-84.26c1.56,6.41,4.83,12,9.81,16.75,4.98,4.77,11.87,7.15,20.69,7.15,6.82,0,12.52-1.46,17.06-4.37s8.04-6.65,10.45-11.2h26.89ZM265.56,93.36c-2-5.26-5.23-9.63-9.7-13.12-4.48-3.49-10.14-5.23-16.96-5.23-7.53,0-13.68,1.77-18.45,5.33-4.76,3.56-8.21,7.9-10.35,13.02h55.46Z"/>
  <path class="st4" d="M358.35,53.67h52.48v106.87h-25.61v-5.97c-4.11,2.71-8.63,4.58-13.54,5.66-4.91,1.06-9.77,1.6-14.62,1.6-9.24,0-17.34-1.56-24.3-4.69-6.98-3.12-12.74-7.26-17.29-12.38s-7.97-10.95-10.24-17.5c-2.27-6.53-3.4-13.3-3.4-20.26,0-7.4,1.2-14.32,3.63-20.8,2.41-6.48,5.97-12.12,10.66-16.96,4.69-4.83,10.55-8.65,17.6-11.41,7.03-2.78,15.24-4.17,24.63-4.17ZM359.84,138.35c4.98,0,9.06-.85,12.27-2.55,3.19-1.7,5.78-3.87,7.78-6.51,2-2.62,3.39-5.5,4.17-8.65.78-3.12,1.16-6.11,1.16-8.96v-34.55h-29.86c-6.27,0-11.53,1.53-15.78,4.58-4.27,3.06-7.4,6.82-9.39,11.3s-2.92,9.39-2.78,14.72c.14,5.33,1.42,10.24,3.85,14.72,2.41,4.48,5.99,8.25,10.76,11.3,4.76,3.06,10.69,4.58,17.81,4.58Z"/>
  <path class="st4" d="M419.57.34h25.61v92.15l33.28-38.82h30.07l-37.12,44.58,44.58,62.08h-31.99l-29.44-41.8-9.37,11.3v30.71h-25.61V.34Z"/>
  <path class="st4" d="M522.6,213.66V53.67h56.73c11.23,0,20.59,2.67,28.05,8,7.46,5.33,13.09,12.01,16.86,20.05,3.77,8.04,5.62,16.72,5.54,26.02-.07,9.32-2.05,17.98-5.97,26.02-3.91,8.04-9.77,14.72-17.59,20.05-7.83,5.33-17.64,8-29.44,8-4.84,0-9.81-.64-14.93-1.93-5.12-1.27-9.74-3.33-13.87-6.18v59.94h-25.38ZM576.58,138.35c6.11,0,11.2-1.53,15.24-4.58,4.06-3.06,7.12-6.82,9.18-11.3,2.05-4.48,3.12-9.39,3.19-14.72.07-5.33-.82-10.24-2.67-14.72-1.84-4.48-4.62-8.25-8.32-11.3-3.7-3.06-8.32-4.58-13.87-4.58h-31.14v36.91c0,4.69.94,8.56,2.78,11.61s4.17,5.56,6.93,7.46c2.78,1.93,5.83,3.28,9.18,4.06,3.33.78,6.51,1.16,9.5,1.16Z"/>
  <path class="st4" d="M816.79,53.67h25.59v106.66h-25.59V53.67Z"/>
  <path class="st4" d="M900.39,52.18c15.8,0,27.95,4.44,36.49,13.33,8.52,8.89,12.79,21.3,12.79,37.22v57.6h-25.61v-61.23c0-7.1-2.2-12.79-6.61-17.06-4.41-4.25-10.09-6.39-17.06-6.39s-12.66,2.14-17.06,6.39c-4.41,4.27-6.61,9.96-6.61,17.06v61.23h-25.59v-57.6c0-15.92,4.27-28.33,12.79-37.22,8.54-8.89,20.69-13.33,36.47-13.33Z"/>
  <path class="st4" d="M1006.22,161.82c-7.26,0-13.84-1.15-19.74-3.42s-10.95-5.61-15.16-10.02c-4.18-4.41-7.43-9.77-9.7-16.11-2.27-6.32-3.4-13.61-3.4-21.86V11h25.59v42.67h22.41v23.47h-22.19v34.77c0,7.24,1.84,13.47,5.54,18.66,3.7,5.19,9.25,7.78,16.65,7.78v23.47Z"/>
  <g>
    <path class="st3" d="M727.89,80.84l48.62,24.72-48.62,25.6v28.91s68.37-35.97,68.37-35.97c15.1-7.94,14.95-29.61-.26-37.34l-68.11-34.62v28.71Z"/>
    <path class="st1" d="M796.01,86.75l-68.11-34.62v28.71l48.62,24.72h-.02c20.51,10.72,22.76,14.02,19.77,18.54h0c15.1-7.94,14.95-29.61-.26-37.34Z"/>
  </g>
  <g>
    <path class="st0" d="M718.64,131.36l-48.62-24.72,48.62-25.6v-28.91l-68.37,35.97c-15.1,7.94-14.95,29.61.26,37.34l68.11,34.62v-28.71Z"/>
    <path class="st2" d="M650.53,125.44l68.11,34.62v-28.71s-48.62-24.72-48.62-24.72h.02c-20.51-10.72-22.76-14.02-19.77-18.54h0c-15.1,7.94-14.95,29.61.26,37.34Z"/>
  </g>
</svg>