<svg width="348" height="29" viewBox="0 0 348 29" fill="none" xmlns="http://www.w3.org/2000/svg">
<path d="M347.498 4.43568C345.735 4.46676 343.929 4.49859 342.067 4.5853C341.256 4.61754 339.065 4.60227 338.51 4.54021C336.543 4.32339 334.396 4.39715 331.368 4.55828C329.99 4.63647 327.459 4.69904 325.026 4.67007C322.918 4.54554 329.134 4.50785 327.197 4.39827C320.867 4.40206 316.203 4.53814 311.582 4.67347L311.673 0.12722C311.488 0.130479 311.289 0.116029 311.103 0.10133L311.102 0.0115429C310.533 0.0215686 309.964 0.0136362 309.395 0.00570389L281.878 0.598422C282.447 0.606354 283.002 0.632494 283.543 0.640928C279.79 0.81484 276.009 0.971295 274.259 0.966208C273.42 0.980995 272.595 0.959617 271.77 0.974153L271.727 0.974905C270.588 0.941084 269.492 0.90651 268.397 0.889893L245.104 1.39022C240.296 1.42106 235.289 1.45541 236.677 1.10761C236.875 1.05023 236.873 0.960443 234.982 0.993777C234.698 0.99879 234.37 1.00455 234.001 1.01107C231.739 1.05092 229.593 1.14264 228.798 1.24646C228.174 1.32932 228.673 1.39238 228.631 1.46496C228.618 1.50112 228.39 1.52309 228.021 1.56552C228.021 1.56552 228.021 1.56552 228.007 1.56577C227.382 1.61272 226.344 1.64897 225.136 1.68823C223.572 1.73376 221.78 1.7833 221.537 1.69777C221.05 1.52672 219.954 1.5101 218.575 1.55237C218.02 1.56214 217.438 1.60833 216.813 1.63732C215.86 1.69003 214.852 1.76169 213.885 1.79669C206.196 2.21961 201.645 2.29981 196.833 2.06129C194.284 1.92658 191.07 2.00118 187.146 2.14218C182.412 2.31543 182.211 2.22915 183.048 2.05275C180.842 2.03772 179.976 2.10688 179.152 2.15733C178.726 2.20077 178.299 2.22624 177.688 2.25498C174.93 2.37543 173.112 2.53321 169.372 2.59913C168.802 2.53733 170.208 2.44068 170.676 2.36058C171.244 2.26077 170.375 2.18627 168.129 2.27974C163.224 2.456 156.214 2.63343 155.308 2.90088C154.359 3.16907 150.704 3.23349 146.367 3.30993C144.276 3.34677 142.299 3.36365 140.208 3.38254C134.847 3.47703 134.802 3.37003 137.687 3.1755C139.107 3.06065 142.576 2.9097 140.541 2.85576C137.765 2.77893 137.456 2.99993 135.295 3.05599C130.46 3.17712 125.381 3.15885 120.748 3.40217L120.279 3.44635C120.479 3.51468 120.679 3.56504 120.88 3.63336C122.687 3.63745 124.92 3.61605 124.282 3.73508C124.182 3.73683 123.045 3.7928 122.448 3.80332C119.162 3.86122 120.526 3.72941 120.197 3.66335C117.638 3.70846 117.565 3.60197 116.241 3.58936C110.566 3.63549 110.063 3.35695 104.218 3.42404C102.994 3.4456 102.297 3.42196 102.623 3.36233C101.515 3.41779 98.1974 3.27865 99.1541 3.47735C99.6253 3.57683 101.191 3.63904 103.852 3.66401C108.319 3.69305 110.925 3.8088 105.596 4.17215C104.994 3.91332 100.956 4.00245 97.0174 4.12575C92.354 4.27979 90.2053 4.2458 88.567 4.11301C87.926 4.07042 87.866 3.89184 84.4686 4.04153C81.995 4.13901 84.187 4.20816 84.6722 4.28943C86.2416 4.54918 92.0775 4.73374 82.9242 5.20042C82.7535 5.20343 82.7823 5.22089 82.6689 5.24085C79.3037 5.60552 64.4325 6.11909 55.5425 6.18595C59.4098 6.0639 61.6261 5.8991 65.3803 5.81498C66.6318 5.79292 68.1098 5.71298 67.9382 5.66212C67.6807 5.57684 65.5193 5.6329 64.2113 5.67391C58.2117 5.88742 52.0569 6.17552 47.7421 5.92823C47.543 5.93174 46.2347 5.9548 45.4525 5.96858C41.9255 6.03074 38.5686 6.05397 36.7318 5.9606C35.2228 5.89738 32.7764 5.92253 30.5727 5.9973C25.7386 6.15434 31.0439 6.09677 30.6893 6.15691C30.4058 6.21579 29.8515 6.24353 28.6003 6.28354C26.8937 6.31361 25.7993 6.36883 25.0462 6.41803C23.7246 6.49521 23.4563 6.60771 22.8315 6.67261C21.9229 6.77844 22.7218 6.90807 18.8817 6.95778C16.0232 7.00816 13.6469 6.97818 12.3218 6.85783C9.89937 6.63108 17.5502 6.47828 19.3251 6.28533L19.3393 6.28508C19.3393 6.28508 19.4388 6.28333 19.4673 6.28283C19.0975 6.28934 18.742 6.29561 18.3864 6.30188C18.3438 6.30263 18.3153 6.30313 18.2727 6.30388L18.2016 6.30513C15.2574 6.33906 12.4845 6.40589 9.75399 6.45401C6.42616 6.51266 3.35653 6.6925 0.056197 6.69677L0.0603112 6.93022C0.387406 6.92445 0.671835 6.91944 0.899379 6.91543C5.53559 6.83372 5.99289 6.95141 6.20811 7.05539C6.42333 7.15938 2.94096 7.32853 1.8595 7.31166C1.2622 7.32219 0.650038 7.29705 0.0666406 7.28937L0.0821478 8.16928L0.112529 9.8932L0.252766 19.465C2.18847 19.5207 3.86882 19.6169 4.31127 19.6989C4.7967 19.7981 2.02288 19.8111 0.259096 19.8242L0.139706 9.82087L0.26321 20.0576C0.391203 20.0554 0.533418 20.0529 0.661412 20.0506C3.39225 20.0204 6.1231 19.9903 8.85426 19.9781C9.949 19.9408 10.5735 19.858 12.6934 19.8745C13.9879 19.8696 15.3108 19.8643 15.9094 19.9256C17.0762 19.9409 18.2995 19.9374 19.5371 19.9335L19.7124 28.2653L19.9115 28.2618L19.9194 28.7107C22.862 28.587 25.8476 28.4805 28.6356 28.4673C32.7039 28.4495 35.589 28.2908 38.4029 28.1335C39.2284 28.1548 40.4233 28.1518 41.2618 28.101C46.4068 27.8307 50.008 27.9469 53.5523 28.0641C58.3921 28.2303 66.7281 28.2091 69.9339 28.4939C70.4468 28.5387 73.9608 28.5487 76.4919 28.4861C76.8317 28.3903 77.0434 28.2968 80.3156 28.3109C89.5068 28.3825 99.8013 28.0933 109.278 28.2316C114.757 28.3147 119.21 28.326 116.498 28.6433C117.493 28.6257 117.907 28.6544 117.864 28.6911C122.929 28.6916 120.707 28.5152 122.526 28.4472C123.987 28.188 130.929 28.1914 134.696 28.0352C136.402 27.9692 136.875 28.1764 137.773 28.2683L138.157 28.2616C144.546 28.3107 150.919 28.342 157.307 28.3552C157.722 28.4916 156.443 28.586 154.098 28.6812C157.326 28.6243 161.31 28.6439 162.09 28.5044C162.586 28.4059 160.507 28.3347 157.392 28.3537C157.945 28.2541 156.748 28.0956 160.46 28.0482C166.817 27.972 171.935 27.7741 178.065 27.684C183.256 27.5746 184.246 27.2697 190.661 27.2105C189.181 27.1648 187.686 27.1193 190.416 27.0532C192.677 26.9954 195.876 26.8671 197.755 26.9598C202.041 27.1716 203.631 27.0179 205.463 26.8239C208.19 26.5424 217.289 26.2742 210.612 25.9787C209.758 25.9399 211.62 25.8532 212.971 25.8114C220.72 25.585 214.296 25.1414 224.607 24.9417C224.678 24.9405 224.606 24.8879 224.221 24.8587C218.255 24.5687 223.156 24.159 224.131 23.8005C224.343 23.7249 224.271 23.6723 223.787 23.6269C226.674 23.594 229.576 23.5788 232.463 23.5459C236.375 23.5128 239.148 23.464 237.295 23.2811C237.907 23.2703 238.504 23.2598 239.101 23.2492C245.653 22.8823 254.648 23.1369 262.141 22.8971C261.271 22.7508 258.724 22.7238 255.068 22.7523C251.683 22.776 248.369 22.7985 246.333 22.6907C250.088 22.6963 253.827 22.5406 257.783 22.6146C260.401 22.6583 264.471 22.6944 266.103 22.486C267.381 22.3377 264.534 22.2621 261.546 22.207C259.084 22.1785 254.391 22.2433 254.658 22.0949C255.011 21.909 260.09 21.9632 262.763 21.8802C265.906 21.7889 270.457 21.7087 270.482 21.5466C270.509 21.4383 270.534 21.2762 266.92 21.2321C260.076 21.1551 258.835 20.9435 259.726 20.6583C259.91 20.6012 259.794 20.4955 258.557 20.5352C252.6 20.748 252.881 20.5275 251.201 20.4314C248.965 20.3091 245.695 20.4206 242.893 20.4341C241.584 20.4571 240.717 20.5083 241.273 20.5524C242.384 20.6406 245.284 20.5177 246.836 20.5622C247.077 20.5579 247.234 20.5731 247.263 20.5906C247.263 20.5906 247.234 20.5911 247.192 20.5918C246.031 20.8997 235.203 20.8031 235.28 21.1431C235.051 21.0752 235.432 20.9068 236.055 20.7162C236.467 20.709 237.051 20.6987 237.96 20.6467C240.845 20.4881 239.791 20.3989 238.794 20.3446C238.595 20.3481 238.225 20.3187 237.855 20.3253C238.266 20.2462 238.649 20.2035 238.976 20.1798C239.133 20.177 239.289 20.1743 239.431 20.1358C243.952 20.0202 250.079 19.7506 247.683 20.206C248.991 20.1649 250.043 20.1105 251.081 20.0742C258.345 19.7845 266.134 19.4137 269.568 19.7304C270.124 19.7745 271.957 19.6704 272.924 19.6533C281.428 19.4855 289.011 19.4776 298.763 19.0902C299.218 19.0822 299.873 19.1066 300.513 19.0953C304.039 18.9972 307.239 18.9588 310.468 18.9198C310.439 18.9203 310.411 18.9388 310.411 18.9568L311.492 18.9018C315.971 18.8228 320.551 18.7601 326.11 18.5544C326.494 18.5476 326.863 18.5411 327.233 18.5166C328.03 18.5205 328.798 18.5249 329.082 18.5199C335.521 18.1909 341.412 18.3026 347.725 18.0836L347.484 4.43593L347.498 4.43568ZM76.5776 5.90505C76.6488 5.9038 76.6917 5.921 76.7632 5.93771C76.6209 5.94021 76.4787 5.94272 76.3795 5.96243C75.1018 6.11069 73.3396 6.2136 71.2784 6.30381C71.5748 6.17285 75.8972 6.04278 76.5776 5.90505ZM75.2375 13.0061C73.9298 13.0651 72.2801 13.0942 70.686 13.0504C70.302 13.0572 69.8744 13.0108 69.6181 12.9974C71.496 13.0002 73.3739 13.003 75.2378 13.0241L75.2375 13.0061ZM0.371582 18.942L0.25781 18.944L0.139706 9.82087L0.255278 18.8003C0.255278 18.8003 0.326386 18.7991 0.36905 18.7983C0.93791 18.7883 1.54975 18.7955 2.16159 18.8027L0.371582 18.942ZM0.327572 15.6376L0.34846 16.8228L0.320017 16.8233L0.299129 15.6381L0.327572 15.6376ZM0.239573 9.83707L0.253795 9.83682L0.274682 11.022L0.246239 11.0225L0.225352 9.83732L0.239573 9.83707ZM0.233521 7.87921L0.119749 7.88121L0.117217 7.73755L0.230989 7.73555L0.571672 7.69362L2.75893 7.4934C3.47064 7.51678 4.18203 7.52221 4.76575 7.54785C5.89019 7.58192 6.55955 7.62401 5.97742 7.68816C5.83521 7.69067 5.66487 7.71163 5.45186 7.73335C4.78408 7.78105 3.77467 7.8168 2.5374 7.8386C1.82633 7.85113 1.05837 7.86467 0.233521 7.87921ZM4.21121 11.5993C4.72097 11.4646 4.32086 11.3639 2.98278 11.3156C6.93699 11.2818 10.9196 11.2476 15.0018 11.2115C15.6958 11.0376 15.6788 10.8763 21.1104 10.7267C22.3335 10.7051 23.2572 10.6529 23.9677 10.6045C24.1099 10.602 24.2237 10.5999 24.3517 10.5977C24.7356 10.5909 25.1054 10.5844 25.447 10.5963C28.023 10.6587 24.5397 10.774 22.6919 10.8605C22.3932 10.8657 22.1515 10.87 21.9669 10.8912C16.3965 11.2409 16.6123 11.3808 24.1109 11.4642C18.6372 11.6504 8.1828 11.7449 4.95199 11.6581C4.53925 11.6474 4.09775 11.6193 4.21121 11.5993ZM18.1092 15.5937C16.5872 15.6025 15.0648 15.5934 13.5286 15.6025C13.2442 15.6075 12.9597 15.6126 12.6753 15.6176C12.9022 15.5776 12.9303 15.5592 13.0865 15.5385C13.4562 15.5319 13.8118 15.5257 14.1392 15.5379C14.9498 15.5236 15.6473 15.5472 16.0885 15.5574C16.7291 15.582 17.412 15.588 18.1095 15.6116L18.1092 15.5937ZM8.59791 18.348C8.99422 18.2332 10.5001 18.1168 13.2022 18.0692C15.8758 18.0221 16.3183 18.1041 16.5901 18.1891C15.3825 18.2823 14.4316 18.4068 11.5731 18.4572C9.62471 18.4915 8.2724 18.4435 8.59823 18.3659L8.59791 18.348ZM22.1698 24.0186C21.3592 24.0329 20.5628 24.0469 19.8375 24.0597L19.7664 24.061L19.7641 23.9353C19.7641 23.9353 19.7784 23.935 19.7926 23.9348C19.8068 23.9345 19.8068 23.9345 19.821 23.9343L19.8352 23.934C20.2771 23.9801 20.918 24.0227 22.184 24.0184L22.1698 24.0186ZM23.6566 19.5915C24.1809 19.4744 22.4304 19.4334 20.2533 19.4C20.8379 19.4795 21.5364 19.557 23.6566 19.5915C23.6424 19.5917 23.614 19.5922 23.5855 19.5927C23.1317 19.6726 21.482 19.7016 19.7467 19.7143L19.6755 19.7155L19.6797 19.949L19.7569 23.5222L19.6939 19.9487L19.6755 19.7155C19.6329 19.7163 19.5902 19.717 19.5476 19.7178C18.8934 19.7293 18.2246 19.7231 17.6125 19.698C15.1648 19.6513 11.2245 19.6669 11.1082 19.5252C13.0834 19.4006 15.4154 19.3415 18.2471 19.3814C18.6737 19.3739 19.1149 19.3841 19.5419 19.3945C19.5845 19.3938 19.6272 19.393 19.6699 19.3923L19.6686 19.3204L19.6664 19.1947L19.7375 19.1935C21.8144 19.1928 23.6926 19.2136 25.2011 19.2409C24.7479 19.3567 24.7928 19.4816 25.3073 19.6163C24.6815 19.6273 24.1266 19.6191 23.6569 19.6094L23.6566 19.5915ZM26.588 15.6059C26.3321 15.6104 26.0761 15.6149 25.8059 15.6197C26.0761 15.6149 26.3463 15.6102 26.6307 15.6051L26.588 15.6059ZM30.4609 11.7654C30.4609 11.7654 30.4183 11.7662 30.3898 11.7667C30.8762 11.9197 27.2365 12.0378 25.1478 12.1824C24.011 12.2563 22.4176 12.2484 22.459 12.1759C22.5411 11.9948 24.5157 11.8342 29.5214 11.7281C29.4493 11.6755 29.4054 11.6044 29.4187 11.5502C29.4575 11.334 30.1793 11.1237 32.4089 10.9048C33.8046 10.988 36.6925 10.9909 41.4134 10.8718C47.8409 10.7226 53.0323 10.6671 56.4487 10.7865C56.5918 10.8378 56.7492 10.889 57.1626 10.9356C57.2763 10.9336 57.4189 10.949 57.5756 10.9642C56.0691 11.0446 54.6334 11.1059 53.3259 11.1828C52.5861 11.1779 51.8463 11.173 51.035 11.1513C42.7546 11.0997 36.0866 11.325 30.4606 11.7474L30.4609 11.7654ZM53.1803 11.7961C52.9537 11.854 51.9582 11.8715 50.8489 11.8911C50.8337 11.8375 50.8182 11.7659 50.7888 11.7125C51.1728 11.7058 51.5998 11.7162 52.0694 11.7259C52.6383 11.7159 53.2937 11.7762 53.1803 11.7961ZM42.8666 15.0316C43.1362 14.9909 44.2164 14.936 45.0832 14.8848C45.4957 14.8775 45.7795 14.8366 46.0209 14.8143C49.3225 14.8819 50.8546 14.6393 53.399 14.5226C53.7697 14.57 54.1831 14.6166 54.5108 14.6468C54.8531 14.6946 55.1239 14.7258 55.153 14.7612C55.1821 14.7966 55.2396 14.8315 55.3537 14.8475C54.8996 14.9094 54.758 14.9478 54.6878 15.0029C54.6458 15.0396 54.6319 15.0578 54.5898 15.0944C54.5898 15.0944 54.5475 15.1131 54.5194 15.1316C53.3241 15.1167 52.1289 15.1019 50.9479 15.0868C49.0412 15.0665 47.1204 15.0464 45.1724 15.0987C44.7599 15.106 44.3184 15.0779 43.8488 15.0682C42.9096 15.0488 42.6959 15.0346 42.866 14.9957L42.8666 15.0316ZM51.8951 18.7884C51.4407 18.8324 51.769 18.8984 50.0621 18.9105C48.4693 18.9386 46.8465 18.8774 46.9599 18.8574C47.7826 18.7172 45.1494 18.6379 44.5783 18.5222C44.4212 18.489 44.4206 18.4531 44.7329 18.4117C45.0321 18.4423 45.4449 18.453 45.9429 18.4622C48.7895 18.5378 54.0818 18.5523 51.9093 18.7882L51.8951 18.7884ZM49.7827 15.9695C49.4556 15.9753 49.1149 16.0172 48.7881 16.041C48.1763 16.0338 47.9197 16.0024 47.8482 15.9857C47.6191 15.8999 49.8791 15.7882 48.9819 15.7322C47.9705 15.6602 49.0078 15.588 51.6675 15.5591C53.6301 15.5245 55.2523 15.5498 53.9173 15.6811C52.7667 15.7732 51.275 15.8893 49.783 15.9875L49.7827 15.9695ZM54.0141 17.1344C55.2229 17.1131 56.2191 17.1315 57.03 17.1351C55.8354 17.1562 54.9963 17.171 54.0141 17.1344ZM61.2521 13.7376C61.5795 13.7498 60.0872 13.83 57.9123 13.9222C57.3576 13.932 56.7746 13.9422 56.1912 13.9345L56.1485 13.9353C54.1714 13.9522 52.1093 13.9885 50.0895 14.0062C50.9693 13.8829 52.3043 13.7516 53.8958 13.6517C53.9385 13.6509 53.9669 13.6504 54.0096 13.6497C56.8798 13.4554 60.6042 13.2999 64.202 13.2186C68.1129 13.1496 68.7415 13.3002 71.3443 13.2723L71.4154 13.2711C71.4451 13.3424 70.6917 13.3736 69.6674 13.3737C68.7857 13.3893 67.7042 13.3724 66.7084 13.372C67.0662 13.4914 60.2515 13.4678 59.9548 13.5808C59.8843 13.618 60.2266 13.6658 61.2518 13.7196L61.2521 13.7376ZM73.244 13.7059C71.7656 13.7679 70.3441 13.8288 68.8085 13.8739C68.1258 13.8859 67.4148 13.8984 66.6756 13.9294C65.906 13.8532 66.0896 13.7781 67.9236 13.7098C68.0516 13.7076 68.1938 13.7051 68.3502 13.7023C70.5827 13.645 72.0342 13.6733 73.244 13.7059ZM64.0693 16.9931C63.8844 16.9964 63.2445 17.0077 62.8036 17.0154C62.7325 17.0167 62.6614 17.0179 62.59 17.0012C62.59 17.0012 62.6184 17.0007 62.6465 16.9823C62.5185 16.9845 62.419 16.9863 62.291 16.9885C62.2483 16.9893 62.2057 16.99 62.163 16.9908C62.7745 16.98 63.386 16.9692 64.0118 16.9582C64.0548 16.9754 64.2826 16.9894 64.0839 17.0108L64.0693 16.9931ZM68.3079 15.3377C68.2084 15.3394 68.123 15.3409 68.0377 15.3424C65.6472 15.3127 64.2798 15.2111 62.2872 15.1564C62.6847 15.1134 63.0678 15.0528 63.3512 14.9939C63.8332 14.8956 63.9741 14.8213 63.2043 14.7271C64.6972 14.6828 66.1902 14.6385 67.7254 14.5755C67.825 14.5738 67.9391 14.5897 68.0674 14.6054C70.303 14.7277 71.2732 14.8902 69.7402 15.0789C73.8379 15.1145 74.3094 15.2319 74.3969 15.3561C72.5481 15.3887 70.5843 15.3515 68.3364 15.3372L68.3079 15.3377ZM75.8197 14.5586C73.5297 14.581 71.296 14.5665 70.1428 14.515C72.9157 14.4481 75.7596 14.3801 78.6744 14.2928C78.847 14.3975 80.2148 14.5171 75.8197 14.5586ZM92.0797 19.3915C87.0023 19.4631 82.0235 19.4789 77.271 19.419C81.7208 19.2508 87.2409 19.2792 92.2188 19.2095C93.5698 19.1856 94.8507 19.217 95.1076 19.2663C95.522 19.3668 93.4873 19.3488 92.0936 19.3733L92.0797 19.3915ZM92.1607 11.0732C91.0657 11.0925 89.9141 11.1308 88.8904 11.1668C85.7339 11.2583 82.8476 11.3451 80.6556 11.276C78.1791 11.2118 80.7371 11.059 82.0151 10.9287C86.4503 10.7427 82.6497 10.6121 86.2171 10.4235C88.2691 10.6209 91.4437 10.7446 96.3377 10.7661C92.6556 10.9028 91.9035 11.0059 92.1607 11.0732ZM98.2913 4.57034C94.8772 4.57662 98.8421 4.34507 96.1957 4.31986C96.3793 4.24477 97.6163 4.20501 98.9815 4.18095C102.751 4.15045 100.279 4.33772 101.077 4.39551C101.746 4.45556 99.6992 4.54553 98.291 4.55238L98.2913 4.57034ZM106.751 17.2289C106.751 17.2289 106.624 17.2491 106.553 17.2683C106.298 17.3267 105.957 17.3686 104.322 17.3975C102.614 17.3916 102.699 17.3362 102.57 17.2846C102.427 17.2333 102.924 17.1886 103.805 17.173C104.232 17.1655 104.758 17.1562 105.356 17.1457C106.493 17.1257 107.021 17.1882 106.765 17.2286L106.751 17.2289ZM130.921 18.0603C130.807 18.0444 130.764 18.0272 130.821 17.9903C131.047 17.8965 133.18 17.8589 134.73 17.8316C137.204 17.752 139.011 17.7561 140.363 17.8221C136.979 17.8817 133.694 17.9756 130.922 18.0783L130.921 18.0603ZM142.914 11.6158C142.742 11.529 142.954 11.4714 144.32 11.4653C144.207 11.5032 143.766 11.5469 142.914 11.6158ZM157.274 28.0863C156.308 28.1932 154.062 28.2866 151.032 28.2502C148.456 28.2058 145.141 28.1924 144.911 28.0348C147.897 27.9821 151.068 27.8903 153.87 27.8769C155.99 27.8754 158.353 27.9595 157.274 28.0863ZM160.03 8.5299C161.04 8.5121 162.107 8.4933 163.216 8.49171C162.307 8.54367 161.283 8.54375 160.03 8.5299ZM307.315 5.48516C308.182 5.46987 308.921 5.43888 309.604 5.40889C307.671 5.53277 304.984 5.61605 302.624 5.71153C302.779 5.61899 305.21 5.54021 307.315 5.48516ZM279.741 1.26478L279.756 1.26453C280.012 1.26002 280.296 1.255 280.594 1.23178C282.3 1.16579 284.774 1.06831 283.607 1.01703C281.983 0.937859 282.906 0.795866 284.726 0.763785C286.219 0.737469 288.182 0.702881 289.52 0.733194L289.534 0.732944C290.629 0.74956 291.313 0.791402 291.001 0.850789C290.845 0.88946 290.803 0.926127 290.86 0.943082C290.633 0.947092 290.391 0.951353 290.164 0.955363C286.965 1.06563 283.808 1.15718 280.638 1.26695C279.742 1.28274 278.846 1.33444 277.95 1.35023C278.291 1.32626 278.86 1.28032 279.713 1.24732L279.741 1.26478ZM276.829 1.47778C278.338 1.52304 279.975 1.584 281.626 1.64472C281.626 1.64472 281.669 1.64396 281.697 1.64346C284.433 1.88266 287.821 2.02054 291.238 2.17588C291.026 2.25147 291.07 2.32255 292.296 2.46261C293.65 2.61838 290.376 2.49645 287.5 2.40341C280.995 2.14085 277.219 1.79424 273.159 1.48857C270.538 1.30124 274.424 1.41239 276.829 1.47778ZM267.769 3.21819C267.271 3.22696 266.787 3.19956 266.318 3.20784C266.702 3.20107 267.171 3.1928 267.769 3.21819ZM264.081 3.84003C262.545 3.8671 261.209 3.89066 259.916 4.00325C255.744 3.78937 251.345 3.59745 251.056 3.3331C254.273 3.43808 256.692 3.50322 258.57 3.50605C260.407 3.61738 262.244 3.7287 264.081 3.82207L264.081 3.84003ZM255.232 2.19968C256.887 2.45792 252.234 2.37826 249.93 2.41887C248.791 2.36709 247.595 2.29835 246.413 2.24732C246.356 2.24833 246.285 2.24958 246.228 2.25058C247.351 2.19487 250.268 2.19736 255.247 2.21738L255.232 2.19968ZM202.893 3.69689C205.283 3.6907 207.645 3.70297 210.006 3.69728C209.566 3.72301 209.182 3.76569 209.155 3.8021C214.73 3.72181 219.254 3.74986 222.855 3.86602C220.351 3.85626 218.018 3.86145 215.899 3.86288C211.446 3.8695 207.32 3.81648 202.623 3.70166C202.708 3.70015 202.808 3.6984 202.893 3.69689ZM202.552 3.70291L202.595 3.70216C202.424 3.70516 202.268 3.70792 202.111 3.71068C202.253 3.70817 202.41 3.70541 202.552 3.70291ZM183.77 15.6021C184.708 15.5497 185.746 15.4954 186.897 15.4572C188.134 15.4174 189.514 15.4111 191.093 15.4192C191.804 15.4066 192.388 15.4323 192.858 15.4599C194.196 15.5082 194.553 15.5737 193.929 15.6746C193.773 15.6953 193.574 15.7167 193.304 15.7395C192.777 15.7308 192.236 15.7044 191.681 15.6962C189.475 15.6453 187.014 15.6168 183.898 15.5999C183.855 15.6006 183.813 15.6014 183.77 15.6021ZM190.374 19.7969C187.672 19.8445 187.243 19.7443 188.521 19.614C189.887 19.6078 191.338 19.6002 192.973 19.5714C193.003 19.6427 194.754 19.7197 190.374 19.7969ZM207.089 18.9813C204.884 18.9663 201.314 19.0113 198.853 19.0367C197.531 19.06 195.682 19.0926 193.933 19.1234C192.226 19.1535 190.605 19.2 189.695 19.1981C190.347 19.0968 190.09 19.0294 189.79 18.9808C189.205 18.8654 190.669 18.7857 192.772 18.6588C194.335 18.5774 195.501 18.5389 196.44 18.5224C197.492 18.5038 198.275 18.5439 199.001 18.567C200.054 18.5485 202.059 18.5131 202.173 18.5471C200.358 18.8665 205.777 18.7889 209.604 18.8292C208.78 18.8797 207.941 18.9124 207.088 18.9454L207.089 18.9813ZM210.924 17.0456C210.924 17.0456 210.797 17.0658 210.669 17.086C210.498 17.089 210.257 17.0933 209.9 17.0636C209.203 17.04 208.619 17.0323 208.107 17.0234C208.279 17.0743 208.365 17.1087 208.38 17.1443C208.166 17.1481 207.967 17.1516 207.782 17.1549C207.626 17.1576 207.469 17.1604 207.299 17.1634C206.317 17.1627 205.307 17.1446 204.297 17.1444C205.021 17.0957 205.903 17.0443 206.826 16.9921C206.385 16.9819 206.129 16.9684 206.086 16.9333C206.142 16.9323 206.214 16.931 206.27 16.93C206.967 16.9177 207.679 16.9232 208.418 16.9281C209.898 16.92 211.037 16.9718 210.924 17.0276L210.924 17.0456ZM205.484 16.7104C205.626 16.7079 205.769 16.7053 205.897 16.7211C205.854 16.7218 205.812 16.7226 205.783 16.7231C205.684 16.7248 205.584 16.7086 205.484 16.6924L205.484 16.7104ZM213.881 8.01198C212.871 8.02978 208.059 7.80921 210.468 8.09009C210.867 8.13694 210.555 8.19633 209.887 8.24403C209.788 8.24578 209.702 8.24728 209.603 8.24904C205.064 8.20329 209.002 8.06203 208.19 7.98653C207.15 7.89708 208.785 7.83235 210.277 7.77011C210.861 7.7778 211.43 7.80368 212.013 7.81137C212.683 7.87142 213.353 7.93147 214.023 8.00947C217.41 8.07553 218.124 8.26053 220.559 8.37929C218.184 8.42114 216.349 8.3996 214.627 8.37605C214.483 8.27082 213.015 8.15297 213.881 8.02994L213.881 8.01198ZM215.306 21.0999C215.889 21.0537 216.628 21.0227 217.268 21.0114C216.714 21.0571 216.046 21.0868 215.306 21.0999ZM223.901 17.1762C222.948 17.2289 222.31 17.312 220.403 17.2917C217.97 17.2627 219.348 17.1307 219.916 17.1027C220.201 17.0977 220.456 17.0752 220.698 17.053C222.916 17.0139 225.604 16.9845 228.307 16.9548C226.899 16.9796 225.648 17.0556 223.9 17.1582L223.901 17.1762ZM239.5 16.8294C239.174 16.889 236.771 16.9493 234.779 16.9485C233.784 16.9661 232.93 16.9452 232.162 16.9408L234.878 16.8929C236.826 16.8586 238.96 16.821 239.969 16.7673C239.784 16.7705 239.628 16.8092 239.5 16.8294ZM241.909 15.4936C240.999 15.5096 240.118 15.5252 239.279 15.5579C237.4 15.5192 234.968 15.5261 233.487 15.4804C233.416 15.4816 233.374 15.4824 233.303 15.4836C235.265 15.4131 237.212 15.3429 239.203 15.2719C242.686 15.1386 244.052 15.1864 244.438 15.2874C244.681 15.3549 244.583 15.4465 241.924 15.4934L241.909 15.4936ZM251.45 8.75099C251.45 8.75099 251.365 8.7525 251.322 8.77121C251.052 8.77597 250.768 8.78098 250.469 8.78625C248.706 8.83528 246.943 8.88432 245.194 8.9331C244.454 8.94614 243.743 8.95867 243.103 8.96995C239.889 9.02659 241.01 8.88109 240.299 8.87566C235.774 8.82966 233.552 8.67123 227.519 8.57996C231.63 8.54344 234.744 8.50651 237.518 8.45764C239.253 8.46298 241.202 8.46456 242.995 8.46889C244.688 8.45702 246.508 8.4429 248.258 8.44799C248.116 8.46845 247.875 8.50863 247.52 8.55081C247.321 8.57227 246.981 8.6142 248.375 8.6076C251.532 8.56992 251.903 8.63523 251.421 8.73354L251.45 8.75099ZM227.442 8.22206C227.54 8.1844 227.725 8.16318 228.194 8.11899C230.923 8.017 232.66 8.09417 232.462 8.16951C232.434 8.17001 232.434 8.17001 232.435 8.20592C230.656 8.20134 229.006 8.1945 227.456 8.22181L227.442 8.22206ZM242.08 6.58094C242.08 6.58094 243.159 6.50802 244.425 6.48571C243.985 6.5294 243.616 6.58979 243.29 6.64942C242.735 6.64124 242.279 6.61334 242.08 6.58094ZM245.785 6.17433C247.151 6.15027 248.757 6.08604 250.207 6.04251C249.156 6.09697 248.218 6.14943 247.379 6.21809C246.938 6.2079 246.412 6.19922 245.785 6.17433ZM286.105 7.18821C284.381 7.021 278.789 6.95788 279.767 6.76101C276.65 6.6902 275.385 6.71251 277.921 6.9193C279.374 7.03739 280.428 7.14455 279.007 7.18757L278.878 7.18983C278.409 7.16218 277.938 7.11658 277.425 7.07173C275.516 6.90778 273.339 6.89226 271.304 6.82035C271.972 6.80857 272.342 6.80206 272.611 6.74342C272.554 6.74443 271.842 6.66717 271.03 6.64554C269.066 6.57238 269.992 6.66384 269.438 6.69157C269.324 6.69357 269.239 6.69508 269.196 6.69583C265.323 6.45873 260.156 6.2983 255.316 6.11415C256.026 6.04775 253.233 5.77364 255.252 5.75601C256.191 5.73946 255.365 5.68217 254.425 5.64484C253.785 5.6202 253.073 5.57886 252.845 5.58287C248.007 5.50647 247.25 5.35814 245.369 5.17573C242.99 4.94823 238.975 4.78546 234.508 4.79233C232.062 4.79952 229.629 4.7885 228.391 4.79235C229.688 4.9132 230.927 5.0171 232.153 5.12125C228.594 5.00433 225.107 4.88616 221.876 4.78144C215.1 4.57751 205.937 4.45159 201.533 4.02623C205.929 4.02062 210.297 4.03346 214.835 4.06125C219.374 4.08904 224.098 4.13154 229.165 4.27576C229.521 4.32337 229.863 4.35327 230.191 4.40137C230.119 4.36671 230.09 4.3313 230.061 4.29588C230.346 4.29087 230.644 4.30357 230.929 4.31651C232.552 4.35977 234.188 4.40278 234.7 4.35784C235.41 4.29143 233.232 4.20408 231.779 4.1219C230.854 4.06636 229.957 4.02828 229.074 4.0079C228.575 3.94484 227.834 3.86809 226.923 3.8123C228.602 3.85455 230.339 3.89581 232.132 3.93606C225.439 3.569 216.546 3.43833 213.622 3.02281L224.179 3.10621L234.737 3.24347C235.918 3.25858 236.643 3.2458 237.098 3.23778C237.328 3.32356 239.606 3.44508 242.908 3.5665C241.397 3.35962 240.54 3.15917 244.866 3.26255C250.872 3.42615 246.707 3.58937 250.182 3.77962C251.719 3.80643 248.741 3.55353 252.742 3.73451C255.304 3.85101 255.277 3.90539 254.965 4.00069C253.692 4.38239 263.065 4.28906 265.474 4.53402C266.257 4.61002 267.852 4.70765 269.075 4.65018C269.43 4.64392 269.842 4.60073 269.529 4.57033C265.753 4.22373 268.912 4.29379 272.569 4.35508C273.068 4.38222 273.58 4.42707 274.079 4.45422C275.688 4.5516 277.368 4.64772 279.09 4.67127C281.011 4.69131 280.569 4.60929 279.486 4.50264C277.975 4.34963 277.831 4.26235 281.475 4.37776C283.61 4.44791 286.999 4.60375 286.754 4.44639C286.524 4.28879 282.723 4.17613 280.445 4.05461C279.192 4.00484 277.484 3.92717 276.202 3.85994C277.253 3.75161 274.289 3.46255 274.813 3.30961C276.35 3.37233 277.432 3.42511 278.457 3.46094C279.198 3.50178 280.123 3.53936 280.522 3.58622C283.828 3.90518 283.932 4.15483 287.936 4.49742C288.391 4.52531 286.728 4.5726 288.109 4.67399C290.161 4.81747 291.298 4.77946 292.863 4.80577C294.998 4.85796 296.975 4.85904 299.581 5.0107C299.681 5.00895 299.781 5.00719 299.867 5.0416C300.223 5.07125 300.522 5.11986 300.366 5.12262C299.541 5.1192 298.787 5.11452 297.947 5.11135C296.838 5.11295 295.585 5.08113 293.877 5.02142C292.084 4.96321 290.589 4.93565 288.638 4.80837C286.36 4.6689 284.382 4.68578 284.668 4.7526C285.824 4.96574 280.9 4.87289 281.359 5.08036C281.402 5.09756 281.36 5.11627 281.261 5.13598C279.979 5.06875 278.484 4.98732 276.79 4.9094C278.015 5.01355 279.197 5.10049 280.365 5.18769C279.114 5.2277 276.767 5.21518 273.763 5.10645C271.87 5.03204 269.035 4.81255 267.328 4.82467C265.223 4.84381 269.053 5.04575 269.154 5.13378C269.198 5.16894 269.683 5.23225 270.182 5.31327C272.657 5.30557 273.209 5.11622 277.851 5.39367C278.093 5.38941 278.307 5.42156 278.52 5.43576C283.277 5.7112 282.691 5.55986 282.774 5.43265C282.788 5.4324 282.716 5.39774 282.616 5.38154C282.602 5.38179 282.588 5.38204 282.574 5.38229C282.602 5.38179 282.631 5.38128 282.645 5.38103C284.312 5.51333 286.021 5.66283 287.93 5.80882C286.921 5.82661 286.153 5.84014 286.539 5.95908C290.04 6.077 291.363 6.03573 292.77 5.99296C293.794 5.97492 295.301 5.91243 297.48 6.03571C297.707 6.0317 297.963 6.02718 298.248 6.02217C298.149 6.04188 298.106 6.06059 298.107 6.09651C298.52 6.12515 298.919 6.15405 299.289 6.16549C300.071 6.15171 301.152 6.13266 302.119 6.09766L302.19 6.09641C301.237 6.09524 300.226 6.05916 298.815 5.94032C295.909 5.68617 300.193 5.80826 300.562 5.72991C299.323 5.66193 297.856 5.59796 297.585 5.53089C297.513 5.51419 298.381 5.51686 298.822 5.50909C301.085 5.59494 300.973 5.66877 300.96 5.7229C302.042 5.81159 303.837 5.90572 305.289 5.9879C304.336 6.00469 303.313 6.05865 302.204 6.09616C303.186 6.09682 304.096 6.09874 305.321 6.16697C305.321 6.16697 305.335 6.16672 305.349 6.16647C306.003 6.15494 306.643 6.14366 307.283 6.13238C306.898 6.08528 306.172 6.02623 305.317 5.96944C307.607 5.91113 309.455 5.86059 310.948 5.83427C311.034 5.83277 311.119 5.83126 311.204 5.82976L311.209 6.08116L311.213 6.35053C311.213 6.35053 311.228 6.35028 311.242 6.35003L311.243 6.43981L311.225 7.03291L311.183 7.03366L311.188 7.30302L311.159 7.30353L311.164 7.55493C311.064 7.55668 310.979 7.55819 310.907 7.54148C309.982 7.48594 309.198 7.44586 308.5 7.38631C308.273 7.39032 308.031 7.39458 307.803 7.39859C307.306 7.40736 306.822 7.37997 306.821 7.34405C306.835 7.3438 307.09 7.30338 307.489 7.29636C307.418 7.29761 307.346 7.29886 307.275 7.28216C306.82 7.29018 306.265 7.29996 305.582 7.27607C303.334 7.24384 304.413 7.15296 305.806 7.05657C305.62 7.02392 305.449 6.99101 305.292 6.95785L305.562 6.95309C305.761 6.94958 306.843 6.9844 306.886 6.98365C306.9 6.9834 306.914 6.98315 306.943 6.98265C307.042 6.98089 307.127 6.97939 307.213 6.97789C307.639 6.97037 308.08 6.9626 308.55 6.95433C309.318 6.94079 310.256 6.92425 310.925 6.91247C311.01 6.91097 311.095 6.90946 311.181 6.90796L311.178 6.7643C311.178 6.7643 311.022 6.76706 310.936 6.76856C311.007 6.76731 311.093 6.7658 311.192 6.76405C311.107 6.76555 311.022 6.76706 310.936 6.76856C307.949 6.74936 304.491 6.72048 301.389 6.68533C301.361 6.68583 301.332 6.68633 301.304 6.68683C301.034 6.6916 300.749 6.66069 300.45 6.648C297.801 6.51504 296.678 6.51689 295.91 6.58429C295.768 6.5868 295.612 6.60751 295.456 6.62823C292.95 6.49276 289.818 6.35037 289.691 6.42446C289.437 6.57263 288.656 6.64028 285.839 6.63604C285.128 6.64857 287.292 6.73618 288.588 6.82111C288.746 6.87223 289.103 6.93779 289.616 7.0006C290.671 7.14367 292.394 7.257 294.431 7.38278C295.057 7.40767 295.712 7.45001 296.396 7.47389C297.364 7.51072 298.375 7.56476 299.4 7.60059C299.556 7.59783 299.684 7.59557 299.798 7.61153C299.286 7.63851 298.077 7.64185 296.157 7.67569C295.105 7.69423 295.091 7.69449 295.618 7.75704C296.545 7.86645 297.612 7.90153 298.508 7.86778C300.215 7.8377 302.348 7.80011 302.958 7.69955C303.969 7.75358 304.766 7.81137 305.721 7.88437C306.661 7.95761 307.943 8.0428 308.968 8.11455C308.072 8.13033 307.19 8.10996 306.109 8.09309C305.483 8.08616 305.042 8.11189 305.342 8.17846C305.827 8.25972 306.212 8.30683 306.483 8.35594C303.793 8.25965 300.888 8.11324 297.769 7.91673C296.032 7.80364 293.924 7.67912 291.973 7.58776C290.08 7.49539 288.315 7.45464 287.163 7.47494C286.054 7.49449 285.044 7.51228 284.048 7.49391C283.804 7.39043 284.144 7.29462 286.093 7.27825L286.105 7.18821ZM289.253 5.76755C288.826 5.77507 288.385 5.78284 287.987 5.78986C287.515 5.63651 286.588 5.50914 285.12 5.37334C284.536 5.31179 283.866 5.26969 283.111 5.21115C283.51 5.22209 284.023 5.24898 284.706 5.27286C285.702 5.30919 286.813 5.36147 287.866 5.41475C289.077 5.46528 290.202 5.53527 291.014 5.62873C292.753 5.81364 290.519 5.7632 289.267 5.7673L289.253 5.76755ZM302.991 8.7947C299.905 8.83113 296.392 8.91099 293.477 8.96237C292.68 8.92254 292.437 8.85497 292.691 8.74271C292.733 8.74196 292.775 8.70529 292.832 8.70429C297.085 8.62935 300.84 8.63501 303.006 8.81241L302.991 8.7947ZM287.785 16.1581C286.477 16.1811 285.438 16.1456 284.967 16.082C285.907 16.1014 286.846 16.1387 287.785 16.1581ZM315.507 17.5197C314.555 17.5545 313.845 17.6209 312.75 17.6402C309.564 17.6963 315.402 17.9886 308.231 17.9174C303.052 17.865 300.232 17.7171 305.292 17.4483C299.916 17.525 295.962 17.5588 297.536 17.2796C298.543 17.1002 293.477 17.0457 290.759 16.9679C286.759 16.8588 284.169 16.7966 291.508 16.6853C293.456 16.6509 295.93 16.5714 294.662 16.45C293.75 16.3763 291.202 16.3134 294.63 16.2351C298.357 16.2412 302.965 16.1959 306.379 16.1537C308.23 16.2648 310.833 16.2369 312.054 16.0896L312.111 16.0886C314.757 16.1139 316.678 16.1519 317.775 16.2583C315.36 16.4086 314.025 16.5758 311.738 16.7419C321.868 16.8148 323.624 17.1791 315.522 17.5195L315.507 17.5197ZM320.339 6.7286C321.248 6.65868 322.854 6.55853 325.171 6.44585C327.488 6.33317 331.171 6.25029 328.878 6.14699C327.953 6.10941 328.292 5.97769 329.529 5.93793C333.467 5.79667 337.633 5.68732 341.402 5.6209C343.749 5.57955 343.296 5.69531 341.591 5.83313C340.312 5.92752 341.664 5.93963 341.707 5.99275C341.737 6.02816 342.008 6.07727 340.643 6.11929C339.804 6.13408 338.396 6.15889 338.054 6.1649C336.816 6.11488 334.639 6.0814 333.091 6.25237C331.615 6.4221 326.882 6.68513 329.828 6.75896C331.351 6.78601 333.769 6.77932 331.396 6.92892C331.254 6.93142 331.14 6.93343 331.012 6.93569C330.358 6.94721 329.874 6.91982 329.717 6.88666C328.304 6.66007 324.804 6.63194 320.339 6.71064L320.339 6.7286ZM345.224 17.463C343.492 17.6373 339.977 17.5555 337.787 17.6121C337.645 17.6146 336.335 17.5838 336.25 17.5673C340.212 17.2101 329.231 17.2779 328.061 17.065C335.085 16.8514 339.314 17.1181 345.246 17.1034C346.498 17.0813 346.644 17.3123 345.224 17.4451L345.224 17.463Z" fill="#61FF7E"/>
</svg>
