<svg width="27" height="40" viewBox="0 0 27 40" fill="none" xmlns="http://www.w3.org/2000/svg">
<g clip-path="url(#clip0_17_3570)">
<path fill-rule="evenodd" clip-rule="evenodd" d="M3.61874 39.5722L0.860854 37.9827C0.379319 37.589 0.354999 37.3411 0.296631 36.7432L0.306359 20.5371L3.06424 22.1315L3.05451 38.3376C3.11288 38.9403 3.1372 39.1834 3.61874 39.5771V39.5722Z" fill="black"/>
<path fill-rule="evenodd" clip-rule="evenodd" d="M0.598271 21.0524V36.7384C0.64691 37.2779 0.661502 37.4286 1.04576 37.7494L2.79679 38.7556C2.77734 38.6341 2.77247 38.5077 2.75788 38.357L2.76761 22.2968L0.603135 21.0524H0.598271ZM3.61881 39.8688C3.5653 39.8688 3.51666 39.8542 3.46802 39.8299L0.710142 38.2404C0.111872 37.7543 0.0583679 37.4237 0 36.7724L0.00972798 20.5371C0.00972798 20.4302 0.0632318 20.333 0.155648 20.2795C0.248063 20.2309 0.364799 20.2309 0.457215 20.2795L3.2151 21.8739C3.30751 21.9273 3.36588 22.0245 3.36588 22.1315L3.35615 38.3376C3.40479 38.8723 3.41452 39.023 3.80364 39.3438C3.9301 39.4459 3.94469 39.6208 3.86201 39.7472C3.80364 39.8299 3.71122 39.8736 3.61881 39.8736V39.8688Z" fill="#0F9E2A"/>
<path fill-rule="evenodd" clip-rule="evenodd" d="M3.0594 22.1266L0.301514 20.5323V15.2826C0.359882 13.9604 1.10894 12.6723 2.22279 11.9626L22.0241 0.549297C22.5737 0.296533 22.8023 0.199316 23.3763 0.418054L26.1293 2.00755C25.5553 1.78882 25.3267 1.88603 24.7771 2.1388L4.98067 13.557C3.86682 14.2666 3.11776 15.5499 3.0594 16.8769V22.1266Z" fill="#61FF7E"/>
<path fill-rule="evenodd" clip-rule="evenodd" d="M0.598308 20.3622L2.76278 21.6066V16.8721C2.82115 15.4284 3.60425 14.0674 4.81539 13.2993L24.6313 1.88119C24.7723 1.81314 24.8988 1.75481 25.0204 1.71106L23.2304 0.680562C22.8073 0.525015 22.6711 0.588206 22.1555 0.821527L2.37366 12.2251C1.3425 12.8813 0.656676 14.0625 0.608036 15.2972L0.598308 20.3622ZM3.05949 22.428C3.01085 22.428 2.95734 22.4135 2.9087 22.3843L0.155685 20.7948C0.0632695 20.7413 0.00976562 20.6441 0.00976562 20.5323V15.2826C0.0681335 13.8389 0.8561 12.4779 2.06237 11.7098L21.8734 0.291694C22.4911 0.00490307 22.8121 -0.111758 23.4882 0.141007L26.285 1.74995C26.4212 1.82772 26.4699 1.99785 26.4018 2.13882C26.3337 2.27978 26.1732 2.34784 26.0321 2.28951C25.57 2.11452 25.4241 2.17771 24.9085 2.41103L5.13155 13.8146C4.10038 14.4708 3.41456 15.652 3.36105 16.8867V22.1267C3.36105 22.2336 3.30269 22.3308 3.21027 22.3843C3.16163 22.4086 3.11299 22.4232 3.05949 22.4232V22.428Z" fill="#0F9E2A"/>
<path fill-rule="evenodd" clip-rule="evenodd" d="M4.98085 13.5569L24.7821 2.14363C25.8376 1.53602 26.7034 2.03183 26.7034 3.2519L26.6937 8.49677L3.05957 22.1266V16.8769C3.05957 15.6617 3.9205 14.1645 4.98085 13.5569Z" fill="#61FF7E"/>
<path fill-rule="evenodd" clip-rule="evenodd" d="M5.13148 13.8145C4.17813 14.3687 3.36098 15.7686 3.36098 16.872V21.6065L26.392 8.32177V3.25189C26.392 2.77067 26.2509 2.42554 25.9785 2.27C25.7207 2.11931 25.3462 2.16306 24.9328 2.40124L5.13148 13.8145ZM3.05942 22.428C3.01078 22.428 2.95727 22.4134 2.90863 22.3842C2.81622 22.3356 2.76758 22.2335 2.76758 22.1266V16.8769C2.76758 15.5644 3.6966 13.9555 4.83964 13.2993L24.6312 1.88113C25.2392 1.53115 25.8326 1.48254 26.2898 1.74989C26.747 2.01723 27 2.54707 27 3.25189V8.49676C27 8.60369 26.9367 8.70091 26.8492 8.75438L3.2102 22.3842C3.16156 22.4085 3.11292 22.4231 3.05942 22.4231V22.428Z" fill="#0F9E2A"/>
<path fill-rule="evenodd" clip-rule="evenodd" d="M26.6937 8.49683V24.7078C26.6937 25.9279 25.8327 27.4201 24.7724 28.0278C17.5104 32.213 12.233 35.2558 4.97108 39.441C3.91559 40.0487 3.0498 39.5528 3.0498 38.3376L3.05953 22.1315L26.6937 8.50169V8.49683Z" fill="black"/>
<path fill-rule="evenodd" clip-rule="evenodd" d="M3.36581 22.2968L3.35608 38.3328C3.35608 38.8091 3.49714 39.1591 3.76952 39.3098C4.02731 39.4653 4.40184 39.4167 4.81528 39.1786L24.6166 27.7653C25.5699 27.216 26.3871 25.8112 26.3871 24.7078L26.3968 9.01694L3.36581 22.2968ZM4.11973 40C3.88139 40 3.66251 39.9417 3.46795 39.8299C3.01074 39.5626 2.75781 39.0327 2.75781 38.3328L2.76754 22.1267C2.76754 22.0197 2.82104 21.9225 2.9086 21.869L26.5476 8.2392C26.64 8.18573 26.747 8.18573 26.8443 8.2392C26.9367 8.29267 26.9951 8.38988 26.9951 8.49682L26.9853 24.7078C26.9853 26.0251 26.0563 27.6292 24.923 28.2854L5.12171 39.6987C4.77637 39.898 4.43102 40 4.11973 40Z" fill="#0F9E2A"/>
<path fill-rule="evenodd" clip-rule="evenodd" d="M17.5785 8.98778C18.094 8.69127 18.5075 8.93431 18.5075 9.52248C18.5075 10.1106 18.094 10.83 17.5785 11.1266C17.0726 11.4182 16.6543 11.1849 16.6543 10.5919C16.6543 9.99884 17.0677 9.2843 17.5785 8.98778Z" fill="black"/>
<path fill-rule="evenodd" clip-rule="evenodd" d="M17.9919 9.16277C17.9239 9.16277 17.8266 9.19193 17.7293 9.25026C17.3061 9.49331 16.9511 10.1058 16.9511 10.5919C16.9511 10.762 17.0046 10.8884 17.0775 10.9321C17.1553 10.9759 17.2915 10.9516 17.4326 10.8689C17.846 10.6259 18.2011 10.0086 18.2011 9.52733C18.2011 9.3572 18.1622 9.23082 18.0844 9.18707C18.06 9.17249 18.026 9.16763 17.9919 9.16763V9.16277ZM17.1651 11.5494C17.0289 11.5494 16.8927 11.5154 16.776 11.4474C16.5133 11.2918 16.3528 10.9807 16.3528 10.587C16.3528 9.8919 16.8246 9.07041 17.4375 8.72529C17.7731 8.53086 18.1184 8.50169 18.3957 8.65724C18.6535 8.81278 18.8091 9.12388 18.8091 9.51761C18.8091 10.2127 18.347 11.0293 17.7342 11.3793C17.5493 11.4911 17.3499 11.5446 17.1651 11.5494Z" fill="#0F9E2A"/>
<path fill-rule="evenodd" clip-rule="evenodd" d="M20.774 7.14544C21.2798 6.85379 21.6982 7.09197 21.6982 7.68014C21.6982 8.2683 21.2847 8.98771 20.774 9.28422C20.2584 9.58073 19.845 9.34255 19.845 8.74953C19.845 8.1565 20.2584 7.44196 20.774 7.1503V7.14544Z" fill="black"/>
<path fill-rule="evenodd" clip-rule="evenodd" d="M21.1778 7.32042C21.1097 7.32042 21.0173 7.34959 20.9151 7.40792C20.5017 7.65096 20.1369 8.26829 20.1369 8.74952C20.1369 8.91965 20.1904 9.04603 20.2633 9.08978C20.3412 9.13352 20.4676 9.10922 20.6184 9.02172C21.0416 8.77868 21.3967 8.16135 21.3967 7.68013C21.3967 7.51 21.348 7.38362 21.2702 7.33987C21.2459 7.32529 21.2167 7.31556 21.1778 7.31556V7.32042ZM20.3509 9.70711C20.2147 9.70711 20.0834 9.67308 19.9618 9.60503C19.6991 9.45434 19.5483 9.13839 19.5483 8.74466C19.5483 8.04955 20.025 7.23293 20.6233 6.88781C20.9638 6.69337 21.3091 6.66907 21.5766 6.81976C21.8393 6.9753 21.9998 7.2864 21.9998 7.68013C21.9998 8.38009 21.528 9.19185 20.9151 9.54184C20.7303 9.65364 20.5357 9.70711 20.3509 9.70711Z" fill="#0F9E2A"/>
<path fill-rule="evenodd" clip-rule="evenodd" d="M23.9649 5.30812C24.4708 5.0116 24.8842 5.24979 24.8842 5.84281C24.8842 6.43584 24.4708 7.15038 23.9649 7.44689C23.4493 7.74341 23.0359 7.50522 23.0359 6.9122C23.0359 6.31917 23.4493 5.60463 23.9649 5.30812Z" fill="black"/>
<path fill-rule="evenodd" clip-rule="evenodd" d="M24.3687 5.47824C24.3006 5.47824 24.2082 5.50741 24.106 5.56574C23.6926 5.80878 23.3375 6.42125 23.3375 6.90733C23.3375 7.07746 23.3813 7.20385 23.4591 7.24759C23.5321 7.28648 23.6683 7.26704 23.8142 7.17954C24.2373 6.9365 24.5924 6.31917 24.5924 5.83794C24.5924 5.66781 24.5389 5.54143 24.466 5.49768C24.4368 5.4831 24.4173 5.47824 24.3735 5.47824H24.3687ZM23.5467 7.86978C23.4056 7.86978 23.2694 7.83576 23.1575 7.7677C22.8852 7.61702 22.7344 7.30106 22.7344 6.90733C22.7344 6.21223 23.2062 5.39561 23.8093 5.04562C24.1498 4.85119 24.4951 4.82689 24.7675 4.98243C25.035 5.13312 25.1907 5.44908 25.1907 5.84281C25.1907 6.53791 24.714 7.35453 24.106 7.70451C23.9212 7.81631 23.7266 7.86978 23.5467 7.86978Z" fill="#0F9E2A"/>
<path fill-rule="evenodd" clip-rule="evenodd" d="M10.4673 26.234V25.3785L14.4071 23.0988V23.9591L10.4673 26.234Z" fill="#61FF7E"/>
<path fill-rule="evenodd" clip-rule="evenodd" d="M10.764 25.5535V25.7188L14.1153 23.789V23.6237L10.764 25.5535ZM10.4673 26.5305C10.4187 26.5305 10.3555 26.5159 10.3166 26.4916C10.2241 26.4382 10.1658 26.341 10.1658 26.234V25.3785C10.1658 25.2716 10.229 25.1743 10.3166 25.1209L14.2661 22.846C14.3585 22.7877 14.4704 22.7877 14.5628 22.846C14.6552 22.8995 14.7136 22.9967 14.7136 23.1036V23.9591C14.7136 24.0661 14.6552 24.1633 14.5628 24.2168L10.6133 26.4916C10.5743 26.5208 10.5208 26.5305 10.4722 26.5305H10.4673Z" fill="#0F9E2A"/>
<path fill-rule="evenodd" clip-rule="evenodd" d="M6.06055 27.8041V26.4771L8.91084 23.5362L6.06055 23.8911V22.5787L10.1463 22.2627V23.3904L6.06055 27.8041Z" fill="#61FF7E"/>
<path fill-rule="evenodd" clip-rule="evenodd" d="M6.35728 26.5986V27.0409L9.84963 23.2689V22.5835L6.35728 22.8509V23.5508L8.87683 23.2349C8.99843 23.2154 9.12489 23.2835 9.18326 23.4002C9.2319 23.5168 9.21731 23.6481 9.12489 23.7404L6.35728 26.5986ZM6.06058 28.1055C6.02167 28.1055 5.98762 28.0957 5.95357 28.086C5.83684 28.0423 5.75901 27.9305 5.75901 27.8089V26.4819C5.75901 26.4042 5.79306 26.3312 5.8417 26.2729L8.09859 23.9446L6.09463 24.1973C6.01194 24.2119 5.92439 24.1827 5.85629 24.1244C5.79793 24.0661 5.75415 23.9835 5.75415 23.896V22.5835C5.75415 22.4231 5.88061 22.2967 6.03626 22.2822L10.1269 21.9662C10.2047 21.9565 10.2874 21.9856 10.3458 22.044C10.4139 22.0974 10.4479 22.1801 10.4479 22.2627V23.3904C10.4479 23.4682 10.4139 23.5411 10.3652 23.5946L6.28433 28.0082C6.22596 28.0714 6.14327 28.1055 6.06058 28.1055Z" fill="#0F9E2A"/>
</g>
<defs>
<clipPath id="clip0_17_3570">
<rect width="27" height="40" fill="white"/>
</clipPath>
</defs>
</svg>
