<svg width="37" height="41" viewBox="0 0 37 41" fill="none" xmlns="http://www.w3.org/2000/svg">
<g clip-path="url(#clip0_17_3526)">
<path fill-rule="evenodd" clip-rule="evenodd" d="M15.1679 19.7608C15.1679 19.2216 15.1679 18.9667 15.3527 18.4471C15.596 17.7903 16.063 17.1334 16.6662 16.7707L34.6359 6.31967C34.8208 6.21183 35.2391 5.95693 35.4434 5.86869C35.6672 5.78046 35.8715 5.75104 36.105 5.80987L33.1474 4.08438C33.0209 4.03536 32.7679 4.05496 32.6317 4.09418C32.4955 4.1334 32.3788 4.19222 32.262 4.25104L14.2825 14.7118C14.0685 14.8393 13.6793 15.0452 13.475 15.202C12.7648 15.7412 12.2199 16.751 12.2102 17.653V33.1432C12.2102 33.4275 12.2978 33.6726 12.5021 33.8687L12.5215 33.8883L15.4792 35.6138C15.2652 35.4079 15.1679 35.1628 15.1581 34.8589V19.7412L15.1679 19.7608Z" fill="#61FF7E"/>
<path fill-rule="evenodd" clip-rule="evenodd" d="M32.9915 4.35886C32.9915 4.35886 32.8261 4.35886 32.6997 4.39808C32.6024 4.42749 32.5051 4.4667 32.3981 4.53533L14.2629 15.0745C14.0683 15.1824 13.7959 15.3393 13.65 15.4471C12.9981 15.9471 12.5117 16.8785 12.5019 17.6628V33.153C12.5019 33.3589 12.57 33.5353 12.6965 33.6726L14.8467 34.9275V19.7706H15.1483L14.8467 19.702C14.8467 19.202 14.8467 18.8981 15.051 18.3491C15.3331 17.5745 15.8779 16.8883 16.4909 16.5255L34.6066 5.99611C34.7817 5.88827 35.0152 5.75102 35.2001 5.66278L32.9818 4.36866L32.9915 4.35886ZM15.479 35.9275C15.4304 35.9275 15.3818 35.9177 15.3331 35.8883L12.3754 34.1628C12.3754 34.1628 12.3073 34.1138 12.2976 34.0942C12.0447 33.8393 11.9084 33.5157 11.9084 33.1432V17.653C11.9279 16.6726 12.4922 15.5745 13.2997 14.9569C13.4748 14.8196 13.7473 14.6628 13.971 14.5353L14.1267 14.4471L32.1062 4.00592C32.2619 3.91768 32.4078 3.85886 32.544 3.81964C32.6997 3.78043 33.0305 3.7216 33.2542 3.81964L36.2508 5.56474C36.3773 5.64317 36.4357 5.80004 36.3773 5.93729C36.3189 6.07455 36.173 6.15298 36.027 6.11376C35.8616 6.07455 35.7254 6.08435 35.5406 6.16278C35.4044 6.2216 35.093 6.39808 34.9179 6.50592L34.772 6.59415L16.8022 17.0451C16.306 17.3393 15.8585 17.9079 15.625 18.5549C15.4596 18.9961 15.4596 19.2216 15.4596 19.702V34.8785C15.4596 35.0942 15.5277 35.2706 15.6834 35.4177C15.7904 35.5255 15.8098 35.6922 15.7125 35.8196C15.6542 35.8981 15.5666 35.9373 15.4693 35.9373L15.479 35.9275Z" fill="#0F9E2A"/>
<path fill-rule="evenodd" clip-rule="evenodd" d="M28.2243 29.0745C31.8046 27.202 33.1959 28.8294 35.4823 30.1137C35.5017 28.2118 35.5504 26.4471 35.1417 24.8294L35.2098 24.7902C36.0368 24.3098 36.7081 23.1431 36.7081 22.1824C36.7081 18.4569 36.7081 10.5843 36.7081 6.85883C36.7081 5.90785 36.0368 5.51569 35.2196 5.98628C29.0318 9.57452 22.8538 13.1726 16.6661 16.7706C15.8488 17.251 15.1775 18.4177 15.1775 19.3686V34.8588C15.1775 35.2412 15.3623 35.5647 15.6834 35.7608C16.0142 35.9471 16.3839 35.9471 16.7147 35.7608L28.234 29.0647L28.2243 29.0745Z" fill="black"/>
<path fill-rule="evenodd" clip-rule="evenodd" d="M35.8715 6.09418C35.7158 6.09418 35.5407 6.153 35.3558 6.26085L16.8023 17.0452C16.0726 17.4667 15.4597 18.5354 15.4597 19.3883V34.8785C15.4597 35.153 15.5862 35.3785 15.8197 35.5157C16.0532 35.653 16.3159 35.653 16.5494 35.5157L28.0687 28.8197C28.0687 28.8197 28.0687 28.8197 28.0784 28.8197C31.2598 27.153 32.8165 28.1334 34.6261 29.2608C34.811 29.3687 34.9861 29.4863 35.1807 29.604C35.2002 27.9275 35.2099 26.3491 34.8402 24.9079C34.811 24.7805 34.8694 24.6432 34.9764 24.5746L35.0445 24.5354C35.7742 24.1138 36.3871 23.0452 36.3871 22.1922V6.85889C36.3871 6.51575 36.2898 6.25104 36.105 6.1432C36.0369 6.10398 35.9493 6.08438 35.8617 6.08438L35.8715 6.09418ZM16.1894 36.2118C15.9656 36.2118 15.7321 36.153 15.5278 36.0256C15.1094 35.7805 14.8662 35.3589 14.8662 34.8687V19.3785C14.8662 18.3099 15.5959 17.0452 16.5104 16.5157L35.064 5.73143C35.5601 5.44712 36.0369 5.40791 36.4163 5.62359C36.7957 5.84908 37.0098 6.28045 37.0098 6.85889V22.1824C37.0098 23.2118 36.3482 24.3981 35.4823 24.9667C35.8228 26.4667 35.8034 28.0844 35.7839 29.7805V30.1138C35.7839 30.2216 35.7255 30.3197 35.6282 30.3687C35.5407 30.4275 35.4239 30.4275 35.3266 30.3687C34.9667 30.1628 34.6359 29.9569 34.3148 29.751C32.5927 28.6824 31.2404 27.8295 28.3703 29.3295L16.8607 36.0256C16.6466 36.153 16.4229 36.2118 16.1991 36.2118H16.1894Z" fill="#0F9E2A"/>
<path fill-rule="evenodd" clip-rule="evenodd" d="M3.57055 17.3883C3.58028 16.3491 4.27105 15.1628 5.14667 14.6334L24.1769 3.57455C24.7023 3.27062 25.2569 2.82945 25.8503 3.08435C25.4222 2.83925 22.6592 1.19219 22.4646 1.13337C21.9197 0.976506 21.3555 1.41768 20.9079 1.67258L2.50034 12.3785C1.66363 12.8687 1.21609 13.0942 0.719904 14.0157C0.476675 14.4667 0.311279 14.9667 0.311279 15.4863V31.702C0.311279 32.0549 0.398842 32.4863 0.710175 32.6922L1.8193 33.3392C1.53715 35.1432 1.56634 36.7902 1.5858 38.5942L4.8548 40.4961C4.82561 38.2706 4.79642 36.6922 5.22451 34.4765L3.57055 33.5157V17.3883Z" fill="#121212"/>
<path fill-rule="evenodd" clip-rule="evenodd" d="M1.88746 38.4178L4.55325 39.9668C4.53379 38.055 4.53379 36.5942 4.89377 34.6236L3.42466 33.7707C3.32737 33.7119 3.27873 33.6138 3.27873 33.506V17.3785C3.28846 16.2413 4.0376 14.9472 5.00079 14.3687L24.2451 3.18246C24.4299 3.06482 24.6342 2.93737 24.858 2.84913C23.9824 2.33933 22.5522 1.49619 22.3673 1.41776C22.056 1.32952 21.6377 1.58442 21.2679 1.80011L21.0539 1.92756L2.53931 12.7021C1.79017 13.1334 1.41073 13.3589 0.972916 14.1629C0.729687 14.6138 0.603208 15.0648 0.603208 15.4962V31.7119C0.603208 31.8785 0.632395 32.2903 0.865895 32.457L1.95556 33.0942C2.06258 33.1629 2.12096 33.2805 2.1015 33.408C1.82908 35.1138 1.84854 36.7021 1.868 38.3982V38.4472L1.88746 38.4178ZM4.85485 40.8001C4.80621 40.8001 4.75756 40.7805 4.70891 40.7609L1.43992 38.8589C1.35235 38.8001 1.29398 38.7021 1.28425 38.604V38.3883C1.26479 36.7413 1.24533 35.1825 1.49829 33.506L0.564291 32.9668C0.204312 32.7217 0.00972916 32.2805 0 31.7119V15.4864C0.00972916 14.957 0.165396 14.408 0.457271 13.8687C0.972916 12.9178 1.47883 12.6236 2.24744 12.1727L20.9566 1.29031C21.4042 1.0158 21.949 0.67266 22.5425 0.849131C22.6689 0.888346 23.1943 1.17266 25.5585 2.56482L25.9963 2.82952C26.1325 2.90795 26.1812 3.08442 26.1131 3.22168C26.045 3.35893 25.8698 3.42756 25.7239 3.35893C25.3542 3.20207 24.965 3.44717 24.5467 3.70207L24.3132 3.83933L5.30239 14.8982C4.51433 15.3687 3.88194 16.4668 3.87221 17.3982V33.3491L5.3705 34.2217C5.47752 34.2903 5.53589 34.4178 5.51643 34.5452C5.11754 36.6629 5.12727 38.1825 5.15646 40.2903V40.506C5.15646 40.6138 5.09808 40.7119 5.01052 40.7707C4.96187 40.8001 4.91323 40.8099 4.86458 40.8099L4.85485 40.8001Z" fill="#0F9E2A"/>
<path fill-rule="evenodd" clip-rule="evenodd" d="M5.22466 34.4765L4.09608 34.6628L1.26489 33.0157L1.81945 33.3393V33.3883C1.55677 35.1628 1.5665 36.8197 1.58595 38.5942L4.85495 40.4961C4.83549 38.4765 4.82577 36.6824 5.18574 34.6824L5.22466 34.4765Z" fill="black"/>
<path fill-rule="evenodd" clip-rule="evenodd" d="M1.88749 38.4177L4.55328 39.9667C4.53383 38.3295 4.55328 36.6432 4.85489 34.8393L4.14466 34.9569C4.07656 34.9667 4.00845 34.9569 3.95008 34.9177L2.05289 33.8196C1.85831 35.3981 1.86804 36.8687 1.87777 38.4079L1.88749 38.4177ZM4.85489 40.8C4.80624 40.8 4.7576 40.7804 4.70895 40.7608L1.43995 38.8589C1.35239 38.8 1.29402 38.7118 1.28429 38.604C1.26483 36.8785 1.2551 35.2608 1.49833 33.5059L1.11889 33.2902C0.972953 33.2118 0.924307 33.0255 1.01187 32.8785C1.09943 32.7314 1.28429 32.6824 1.42049 32.7706L1.97506 33.0942H1.98479L4.16412 34.3687L5.18568 34.202C5.28297 34.1824 5.38026 34.2216 5.44837 34.2902C5.51647 34.3589 5.54566 34.4569 5.5262 34.5549L5.48728 34.7608C5.12731 36.7804 5.14676 38.5942 5.16622 40.5157C5.16622 40.6236 5.10785 40.7216 5.01056 40.7804C4.96191 40.8098 4.91326 40.8196 4.86462 40.8196L4.85489 40.8Z" fill="#0F9E2A"/>
<path fill-rule="evenodd" clip-rule="evenodd" d="M4.10565 15.7118L0.836654 13.8098L0.311279 15.4765L0.398842 32.2706C0.593425 32.7608 1.14799 32.9471 1.8193 33.3392C1.53715 35.153 1.56634 36.7706 1.5858 38.5941L4.8548 40.4961C4.83534 38.2608 4.79642 36.7118 5.22451 34.4765L3.57055 33.5157C3.57055 31.3588 3.43434 17.6039 3.67757 16.702L4.10565 15.7118Z" fill="#61FF7E"/>
<path fill-rule="evenodd" clip-rule="evenodd" d="M1.88746 38.4177L4.55325 39.9667C4.53379 38.0549 4.53379 36.604 4.89377 34.6236L3.42466 33.7706C3.32737 33.7118 3.27873 33.6138 3.27873 33.5059C3.27873 33.104 3.27873 32.3 3.269 31.2608C3.22035 22.9373 3.22035 17.251 3.39548 16.6138L3.736 15.8294L1.02156 14.251L0.622666 15.5157L0.710229 32.1922C0.836708 32.4471 1.12858 32.604 1.53721 32.8098C1.68314 32.8883 1.82908 32.9667 1.98475 33.0549C2.09177 33.1236 2.15014 33.2412 2.13069 33.3589C1.868 35.0647 1.87773 36.5549 1.89719 38.2902V38.3981L1.88746 38.4177ZM4.85485 40.8C4.80621 40.8 4.75756 40.7804 4.70891 40.7608L1.43992 38.8589C1.35235 38.8 1.29398 38.702 1.28425 38.604V38.3294C1.26479 36.7118 1.25506 35.1824 1.49829 33.5059C1.41073 33.4569 1.32317 33.4177 1.24533 33.3687C0.739416 33.104 0.311333 32.8785 0.11675 32.3883C0.107021 32.3589 0.0972916 32.3196 0.0972916 32.2804L0 15.4863C0 15.4863 0 15.4275 0.0194583 15.3981L0.544833 13.7216C0.574021 13.6334 0.632396 13.5647 0.719958 13.5353C0.80752 13.5059 0.895083 13.5059 0.972916 13.5549L4.24191 15.4569C4.37812 15.5353 4.42677 15.702 4.36839 15.8393L3.94031 16.8294C3.76519 17.4863 3.82356 27.1432 3.85275 31.2706C3.85275 32.1824 3.85275 32.9079 3.86248 33.3491L5.3705 34.2216C5.47752 34.2902 5.53589 34.4177 5.51643 34.5451C5.11754 36.6628 5.12727 38.1628 5.15646 40.251V40.5059C5.15646 40.6138 5.09808 40.7118 5.01052 40.7706C4.96187 40.8 4.91323 40.8098 4.86458 40.8098L4.85485 40.8Z" fill="#0F9E2A"/>
<path fill-rule="evenodd" clip-rule="evenodd" d="M26.4243 16.4961C26.3271 16.4961 26.22 16.4373 26.1617 16.3491C26.0838 16.202 26.1325 16.0158 26.2687 15.9373L32.9429 12.055C33.0888 11.9765 33.2639 12.0158 33.3515 12.1628C33.4293 12.3099 33.3807 12.4863 33.2445 12.5746L26.5703 16.4569C26.5703 16.4569 26.473 16.4961 26.4146 16.4961H26.4243Z" fill="#0F9E2A"/>
<path fill-rule="evenodd" clip-rule="evenodd" d="M26.4243 20.3197C26.3271 20.3197 26.22 20.2609 26.1617 20.1628C26.0838 20.0158 26.1325 19.8295 26.2687 19.7511L31.8629 16.4962C32.0089 16.4177 32.184 16.4668 32.2716 16.604C32.3591 16.7511 32.3105 16.9275 32.1646 17.0158L26.58 20.2707C26.58 20.2707 26.4827 20.3099 26.4341 20.3099L26.4243 20.3197Z" fill="#0F9E2A"/>
<path fill-rule="evenodd" clip-rule="evenodd" d="M18.7675 28.8393C18.6702 28.8393 18.5632 28.7804 18.5048 28.6824C18.427 28.5353 18.4757 28.3589 18.6216 28.2706L32.9429 19.9471C33.0791 19.8687 33.2737 19.9177 33.3515 20.0549C33.4391 20.202 33.3905 20.3883 33.2445 20.4667L18.9232 28.7902C18.9232 28.7902 18.8259 28.8295 18.7773 28.8295L18.7675 28.8393Z" fill="#0F9E2A"/>
<path fill-rule="evenodd" clip-rule="evenodd" d="M26.3563 20.5158C26.3563 16.5158 26.3563 8.13342 26.3563 4.14322C26.3563 3.13342 25.646 2.72165 24.7801 3.22165C18.2324 7.02557 11.6944 10.8295 5.14668 14.6334C4.28079 15.1432 3.57056 16.3785 3.57056 17.3883V33.604C3.57056 34.6138 4.27106 35.0256 5.14668 34.5256L5.22451 34.4864C4.7867 36.702 4.83535 38.5158 4.85481 40.506C5.4872 39.4177 6.1196 38.3197 6.74226 37.2217C10.7215 30.2119 18.5437 26.6922 24.7315 23.3001C25.179 23.055 25.5585 22.6628 25.8795 22.1138C26.2006 21.5746 26.3563 21.0354 26.3563 20.5256V20.5158Z" fill="black"/>
<path fill-rule="evenodd" clip-rule="evenodd" d="M5.2246 34.1726C5.28298 34.1726 5.35108 34.1922 5.39973 34.2314C5.49702 34.3 5.54567 34.4177 5.51648 34.5353C5.16623 36.3098 5.13704 37.8393 5.14677 39.3981C5.59431 38.6236 6.04185 37.8491 6.4894 37.0648C10.0405 30.8197 16.5688 27.3295 22.3285 24.251C23.0971 23.8393 23.8559 23.4373 24.5954 23.0255C24.9943 22.8098 25.3348 22.4471 25.6267 21.9569C25.9185 21.4569 26.0645 20.9765 26.0645 20.5157V4.14318C26.0645 3.77063 25.9574 3.48632 25.7629 3.37847C25.5683 3.26083 25.2667 3.30004 24.9456 3.48632L5.30244 14.8981C4.5241 15.3491 3.87225 16.4863 3.87225 17.3883V33.604C3.87225 33.9765 3.97927 34.2608 4.17386 34.3687C4.37817 34.4863 4.67004 34.4471 4.9911 34.2608L5.06894 34.2216C5.06894 34.2216 5.16623 34.1824 5.21488 34.1824L5.2246 34.1726ZM4.8549 40.8C4.8549 40.8 4.80625 40.8 4.77706 40.7902C4.65058 40.751 4.55329 40.6334 4.55329 40.4961V40.1628C4.53383 38.4667 4.51438 36.8589 4.82571 34.9765C4.48519 35.0746 4.1544 35.0451 3.88198 34.8785C3.48308 34.653 3.26904 34.1922 3.26904 33.5844V17.3687C3.26904 16.2412 4.03765 14.9177 5.00083 14.3491L24.6343 2.95691C25.1499 2.65298 25.6558 2.61377 26.045 2.84906C26.4439 3.07455 26.6579 3.53534 26.6579 4.13338V20.5059C26.6579 21.0746 26.4731 21.6628 26.1326 22.251C25.7823 22.8393 25.364 23.2804 24.8775 23.5451C24.1381 23.9471 23.3792 24.3589 22.6009 24.7706C16.9191 27.8098 10.4686 31.2608 7.00504 37.3589C6.38237 38.4569 5.74998 39.5451 5.11758 40.6432C5.05921 40.7412 4.96192 40.8 4.8549 40.8Z" fill="#0F9E2A"/>
<path fill-rule="evenodd" clip-rule="evenodd" d="M7.39407 19.0157C7.28705 19.0157 7.18976 18.9667 7.13138 18.8687C7.05355 18.7216 7.1022 18.5451 7.2384 18.4569L20.509 10.751C20.6452 10.6628 20.8398 10.7216 20.9176 10.8589C21.0052 11.0059 20.9468 11.1824 20.8106 11.2706L7.54001 18.9765C7.54001 18.9765 7.44272 19.0157 7.39407 19.0157Z" fill="#0F9E2A"/>
<path fill-rule="evenodd" clip-rule="evenodd" d="M7.38442 23.0746C7.2774 23.0746 7.18011 23.0256 7.12173 22.9275C7.03417 22.7805 7.08282 22.604 7.22875 22.5157L22.3868 13.702C22.5327 13.6236 22.7176 13.6726 22.7954 13.8197C22.883 13.9667 22.8246 14.153 22.6884 14.2314L7.53036 23.0452C7.53036 23.0452 7.43307 23.0844 7.38442 23.0844V23.0746Z" fill="#0F9E2A"/>
<path fill-rule="evenodd" clip-rule="evenodd" d="M7.38451 27.3785C7.27749 27.3785 7.1802 27.3197 7.13156 27.2314C7.04399 27.0844 7.10237 26.9079 7.23858 26.8197L16.9969 21.1432C17.1331 21.0648 17.318 21.1138 17.4055 21.2608C17.4931 21.4079 17.4445 21.5844 17.2985 21.6726L7.54018 27.3491C7.54018 27.3491 7.44289 27.3883 7.39424 27.3883L7.38451 27.3785Z" fill="#0F9E2A"/>
<path fill-rule="evenodd" clip-rule="evenodd" d="M3.96953 34.8981C3.92088 34.8981 3.87224 34.8882 3.82359 34.8588L0.661615 33.0157C0.515678 32.9275 0.467032 32.751 0.554595 32.6039C0.632428 32.4569 0.817282 32.4079 0.963219 32.4961L4.1252 34.3392C4.27113 34.4177 4.31978 34.6039 4.23222 34.751C4.17384 34.849 4.07655 34.8981 3.96953 34.8981Z" fill="#0F9E2A"/>
</g>
<defs>
<clipPath id="clip0_17_3526">
<rect width="37" height="40" fill="white" transform="translate(0 0.800049)"/>
</clipPath>
</defs>
</svg>
