<svg width="40" height="41" viewBox="0 0 40 41" fill="none" xmlns="http://www.w3.org/2000/svg">
<g clip-path="url(#clip0_17_3422)">
<path fill-rule="evenodd" clip-rule="evenodd" d="M39.334 27.3852L21.6755 17.4216L0.30835 29.4536L17.9668 39.4171L39.334 27.3852Z" fill="#121212"/>
<path fill-rule="evenodd" clip-rule="evenodd" d="M0.924683 29.4536L17.9667 39.0675L38.7273 27.3754L21.6754 17.7615L0.924683 29.4536ZM17.9667 39.7182C17.9667 39.7182 17.8673 39.6987 17.8175 39.6793L0.159085 29.7158C0.0695998 29.6672 0 29.5701 0 29.4536C0 29.3371 0.059657 29.2497 0.159085 29.1914L21.5262 17.1594C21.6157 17.1012 21.745 17.1012 21.8245 17.1594L39.4929 27.1132C39.5923 27.1715 39.652 27.2686 39.652 27.3754C39.652 27.4823 39.5923 27.5794 39.4929 27.6376L18.1258 39.6793C18.1258 39.6793 18.0363 39.7182 17.9667 39.7182Z" fill="#0F9E2A"/>
<path fill-rule="evenodd" clip-rule="evenodd" d="M17.9668 39.4171L0.30835 29.4536V30.7355L17.9668 40.699V39.4171Z" fill="#61FF7E"/>
<path fill-rule="evenodd" clip-rule="evenodd" d="M0.616455 30.5606L17.6684 40.1745V39.5821L0.616455 29.9779V30.5703V30.5606ZM17.9667 40.9999C17.9667 40.9999 17.8673 40.9902 17.8175 40.9611L0.159085 30.9976C0.0695998 30.9393 0 30.8422 0 30.7354V29.4535C0 29.3467 0.059657 29.2496 0.159085 29.1913C0.258514 29.1428 0.367885 29.1428 0.45737 29.1913L18.1258 39.1548C18.2252 39.2131 18.2849 39.3102 18.2849 39.417V40.6989C18.2849 40.8057 18.2252 40.9028 18.1258 40.9514C18.0761 40.9805 18.0164 40.9902 17.9667 40.9902V40.9999Z" fill="#0F9E2A"/>
<path fill-rule="evenodd" clip-rule="evenodd" d="M17.9668 40.699L39.3339 28.6573V27.3851L17.9668 39.4171V40.699Z" fill="#121212"/>
<path fill-rule="evenodd" clip-rule="evenodd" d="M18.2749 39.5919V40.1843L39.0256 28.4922V27.9096L18.2749 39.6016V39.5919ZM17.9667 41C17.9667 41 17.8672 40.9903 17.8175 40.9612C17.7181 40.9029 17.6584 40.8058 17.6584 40.7087V39.4268C17.6584 39.32 17.7181 39.2229 17.8175 39.1647L39.1847 27.123C39.2742 27.0744 39.3935 27.0744 39.483 27.123C39.5824 27.1812 39.642 27.2783 39.642 27.3852V28.667C39.642 28.7738 39.5824 28.871 39.483 28.9292L18.1158 40.9612C18.0661 40.9903 18.0064 41 17.9567 41H17.9667Z" fill="#0F9E2A"/>
<path fill-rule="evenodd" clip-rule="evenodd" d="M17.9268 26.2004L5.56787 19.2279V29.8712L17.9268 36.8437V26.2004Z" fill="black"/>
<path fill-rule="evenodd" clip-rule="evenodd" d="M5.86621 29.7061L17.6186 36.3387V26.3849L5.87615 19.7523V29.7061H5.86621ZM17.9269 37.1447C17.8771 37.1447 17.8175 37.135 17.7777 37.1059L5.40884 30.1334C5.31936 30.0751 5.24976 29.978 5.24976 29.8712V19.2182C5.2597 19.1113 5.31936 19.0142 5.41878 18.956C5.50827 18.9074 5.62758 18.9074 5.71707 18.956L18.0859 25.9285C18.1754 25.9868 18.245 26.0839 18.245 26.1907V36.834C18.245 36.9408 18.1754 37.0379 18.076 37.0962C18.0362 37.1253 17.9766 37.135 17.9169 37.135L17.9269 37.1447Z" fill="#0F9E2A"/>
<path fill-rule="evenodd" clip-rule="evenodd" d="M26.3187 9.86645L13.9598 2.89392L3.77832 20.2378L16.1373 27.2104L26.3187 9.86645Z" fill="black"/>
<path fill-rule="evenodd" clip-rule="evenodd" d="M4.19578 20.1213L16.0277 26.7928L25.901 9.97328L14.069 3.30179L4.19578 20.1213ZM16.1371 27.5017C16.1371 27.5017 16.0377 27.492 15.988 27.4629L3.62903 20.4903C3.47989 20.4126 3.43018 20.2281 3.51966 20.0825L13.6912 2.74826C13.7309 2.68029 13.8105 2.63173 13.8801 2.61231C13.9596 2.59289 14.0491 2.61231 14.1187 2.64144L26.4777 9.61397C26.6268 9.69166 26.6765 9.87617 26.597 10.0218L16.4155 27.356C16.3757 27.424 16.3161 27.4726 16.2266 27.492C16.1968 27.492 16.1769 27.5017 16.1471 27.5017H16.1371Z" fill="#0F9E2A"/>
<path fill-rule="evenodd" clip-rule="evenodd" d="M34.7701 27.356V16.7127L36.5598 15.7028L26.3187 9.86646L16.1372 27.2104L17.9269 26.2004V36.8437L34.7701 27.356Z" fill="black"/>
<path fill-rule="evenodd" clip-rule="evenodd" d="M17.9269 25.8994C17.9766 25.8994 18.0263 25.9188 18.086 25.9382C18.1755 25.9965 18.2451 26.0936 18.2451 26.2004V36.329L34.4618 27.1813V16.7128C34.4618 16.6059 34.5215 16.5088 34.611 16.4506L35.9433 15.7028L26.428 10.284L16.9624 26.4044L17.7778 25.9479C17.7778 25.9479 17.8672 25.9091 17.9269 25.9091V25.8994ZM17.9269 37.1448C17.8772 37.1448 17.8175 37.1351 17.7778 37.1059C17.6883 37.0477 17.6286 36.9506 17.6286 36.8437V26.7151L16.3062 27.4629C16.1869 27.5308 16.0378 27.5114 15.9383 27.4143C15.8389 27.3172 15.819 27.1715 15.8886 27.055L26.0701 9.7111C26.1098 9.64312 26.1794 9.59456 26.259 9.57514C26.3385 9.55572 26.4081 9.56543 26.4877 9.60427L36.7288 15.4406C36.8282 15.4989 36.8779 15.596 36.8779 15.7028C36.8779 15.8096 36.8282 15.9067 36.7288 15.965L35.0882 16.8876V27.3561C35.0882 27.4629 35.0286 27.56 34.9291 27.6182L18.086 37.1059C18.086 37.1059 17.9866 37.1448 17.9269 37.1448Z" fill="#0F9E2A"/>
<path fill-rule="evenodd" clip-rule="evenodd" d="M23.4651 33.7264L28.9734 30.6189V20.4126L23.4651 23.5201V33.7264Z" fill="#61FF7E"/>
<path fill-rule="evenodd" clip-rule="evenodd" d="M23.7634 23.6949V33.2117L28.6752 30.4441V20.9273L23.7634 23.6852V23.6949ZM23.4651 34.0275C23.4154 34.0275 23.3558 34.008 23.3061 33.9886C23.2066 33.9401 23.147 33.8332 23.147 33.7264V23.5201C23.147 23.4133 23.2066 23.3162 23.3061 23.2579L28.8243 20.1504C28.9138 20.0921 29.0331 20.0921 29.1226 20.1504C29.2121 20.1989 29.2817 20.3058 29.2817 20.4126V30.6189C29.2817 30.7257 29.222 30.8228 29.1226 30.8811L23.6043 33.9886C23.6043 33.9886 23.5149 34.0275 23.4552 34.0275H23.4651Z" fill="#0F9E2A"/>
<path fill-rule="evenodd" clip-rule="evenodd" d="M10.4401 29.0263V25.7537C10.4401 25.7537 10.4103 25.6566 10.3705 25.6275L8.17312 24.3942C8.17312 24.3942 8.10352 24.3942 8.10352 24.433V27.7056C8.10352 27.7056 8.14329 27.8027 8.17312 27.8319L10.3705 29.0652C10.3705 29.0652 10.4401 29.0652 10.4401 29.0263Z" fill="#121212"/>
<path fill-rule="evenodd" clip-rule="evenodd" d="M8.40168 27.6182L10.1317 28.5893V25.841L8.40168 24.8699V27.6182ZM10.4002 29.3661C10.3306 29.3661 10.261 29.3467 10.2113 29.3273L8.02385 28.094C7.88465 28.0163 7.79517 27.8706 7.79517 27.7153V24.4426C7.79517 24.3358 7.88465 24.1902 7.96419 24.1416C8.07357 24.0833 8.20282 24.0833 8.33208 24.1416L10.5294 25.3846C10.6587 25.4623 10.7581 25.608 10.7581 25.7633V29.036C10.7581 29.1428 10.6686 29.2884 10.5792 29.337C10.5394 29.3661 10.4698 29.3758 10.4101 29.3758L10.4002 29.3661Z" fill="#0F9E2A"/>
<path fill-rule="evenodd" clip-rule="evenodd" d="M27.154 10.5267L12.8164 2.44714L23.4751 8.51654L37.8127 16.5961L27.154 10.5267Z" fill="#121212"/>
<path fill-rule="evenodd" clip-rule="evenodd" d="M37.8125 16.8972C37.7628 16.8972 37.7032 16.8875 37.6634 16.8584L23.3159 8.76909L12.6572 2.69969C12.508 2.61229 12.4583 2.43749 12.5379 2.29183C12.6274 2.14616 12.8163 2.09761 12.9654 2.18501L27.303 10.2743L37.9617 16.3437C38.1108 16.4311 38.1605 16.6059 38.0711 16.7516C38.0114 16.8487 37.912 16.9069 37.8026 16.9069L37.8125 16.8972Z" fill="#0F9E2A"/>
<path fill-rule="evenodd" clip-rule="evenodd" d="M37.8126 16.5962L39.7017 15.5377L27.1539 8.39038L14.6855 29.6284L16.5647 28.5699L27.1539 10.5268L37.8126 16.5962Z" fill="#121212"/>
<path fill-rule="evenodd" clip-rule="evenodd" d="M27.2633 8.79826L15.5109 28.8224L16.3461 28.3563L26.8954 10.3909C26.9352 10.3229 27.0048 10.2646 27.0744 10.2549C27.1539 10.2355 27.2434 10.2452 27.313 10.284L37.8127 16.266L39.0853 15.5474L27.2633 8.80797V8.79826ZM14.6856 29.9295C14.6061 29.9295 14.5266 29.9003 14.4669 29.8421C14.3575 29.745 14.3476 29.5993 14.4172 29.4828L26.8855 8.23502C26.9253 8.16704 26.9849 8.11849 27.0744 8.09907C27.1539 8.07964 27.2335 8.08936 27.313 8.1282L39.8609 15.2755C39.9504 15.3241 40.01 15.4309 40.01 15.5377C40.01 15.6445 39.9504 15.7417 39.8609 15.7999L37.9717 16.8681C37.8823 16.9167 37.753 16.9167 37.6635 16.8681L27.2733 10.9541L16.8432 28.7253C16.8432 28.7253 16.7736 28.8127 16.7339 28.8418L14.8447 29.9101C14.8447 29.9101 14.7552 29.9489 14.6956 29.9489L14.6856 29.9295Z" fill="#0F9E2A"/>
<path fill-rule="evenodd" clip-rule="evenodd" d="M13.7211 30.8811V27.5987C13.7211 27.5987 13.6813 27.5016 13.6515 27.4822L11.4541 26.2489C11.4541 26.2489 11.3845 26.2489 11.3845 26.2877V29.5604C11.3845 29.5604 11.4144 29.6575 11.4541 29.6769L13.6515 30.9102C13.6515 30.9102 13.7211 30.9102 13.7211 30.8714V30.8811Z" fill="#121212"/>
<path fill-rule="evenodd" clip-rule="evenodd" d="M11.6929 29.473L13.413 30.4441V27.6959L11.6929 26.7248V29.473ZM13.6814 31.221C13.6218 31.221 13.5522 31.2016 13.5025 31.1822L11.3051 29.9489C11.1758 29.8712 11.0764 29.7158 11.0764 29.5701V26.2975C11.0764 26.1907 11.156 26.045 11.2554 25.9965C11.3648 25.9382 11.504 25.9382 11.6133 25.9965L13.8008 27.2298C13.94 27.3074 14.0195 27.4531 14.0195 27.6085V30.8908C14.0195 30.9976 13.94 31.1433 13.8505 31.1919C13.8107 31.221 13.751 31.2307 13.6814 31.2307V31.221Z" fill="#0F9E2A"/>
<path fill-rule="evenodd" clip-rule="evenodd" d="M27.1539 8.39032L12.8064 0.301025L0.338135 21.5488L14.6856 29.6284L27.1539 8.39032Z" fill="#61FF7E"/>
<path fill-rule="evenodd" clip-rule="evenodd" d="M0.75559 21.4323L14.5662 29.2205L26.7263 8.49716L12.9157 0.708906L0.75559 21.4323ZM14.6855 29.9294C14.6358 29.9294 14.5761 29.91 14.5264 29.8906L0.188849 21.8013C0.0397067 21.7236 -0.0100075 21.5391 0.079478 21.3934L12.5478 0.145666C12.5876 0.0776883 12.6572 0.0291331 12.7268 0.00971104C12.8063 -0.00971104 12.8958 0 12.9654 0.0388441L27.3029 8.12814C27.4521 8.21554 27.5018 8.39034 27.4223 8.536L14.954 29.7838C14.9142 29.8517 14.8446 29.9003 14.775 29.9294C14.7452 29.9294 14.7253 29.9391 14.6954 29.9391L14.6855 29.9294Z" fill="#0F9E2A"/>
</g>
<defs>
<clipPath id="clip0_17_3422">
<rect width="40" height="41" fill="white"/>
</clipPath>
</defs>
</svg>
