<svg width="728" height="648" viewBox="0 0 728 648" fill="none" xmlns="http://www.w3.org/2000/svg">
<g clip-path="url(#clip0_1_47)" filter="url(#filter0_d_1_47)">
<path d="M280.356 146.795L556.632 130.62L556.632 130.62C618.135 126.96 658.041 194.199 625.442 246.448L477.29 483.835L424.904 394.18L530.356 225.018L530.867 224.198L529.902 224.254L332.386 235.841L280.356 146.795Z" stroke="#61FF7E"/>
<path d="M395.494 412.25L447.501 501.256L171.225 517.431L171.225 517.431C109.722 521.091 69.8166 453.852 102.416 401.603L101.991 401.338L102.416 401.603L250.491 164.261L302.876 253.916L197.424 423.078L196.913 423.898L197.878 423.842L395.494 412.25Z" stroke="#61FF7E"/>
</g>
<defs>
<filter id="filter0_d_1_47" x="-7.15729" y="-7.57915" width="742.172" height="663.209" filterUnits="userSpaceOnUse" color-interpolation-filters="sRGB">
<feFlood flood-opacity="0" result="BackgroundImageFix"/>
<feColorMatrix in="SourceAlpha" type="matrix" values="0 0 0 0 0 0 0 0 0 0 0 0 0 0 0 0 0 0 127 0" result="hardAlpha"/>
<feOffset/>
<feGaussianBlur stdDeviation="4"/>
<feColorMatrix type="matrix" values="0 0 0 0 0.380392 0 0 0 0 1 0 0 0 0 0.494118 0 0 0 1 0"/>
<feBlend mode="normal" in2="BackgroundImageFix" result="effect1_dropShadow_1_47"/>
<feBlend mode="normal" in="SourceGraphic" in2="effect1_dropShadow_1_47" result="shape"/>
</filter>
<clipPath id="clip0_1_47">
<rect width="612" height="392" fill="white" transform="translate(0.842712 309.172) rotate(-30.2978)"/>
</clipPath>
</defs>
</svg>
