<svg width="40" height="41" viewBox="0 0 40 41" fill="none" xmlns="http://www.w3.org/2000/svg">
<g clip-path="url(#clip0_17_3492)">
<path fill-rule="evenodd" clip-rule="evenodd" d="M2.69824 38.3196C3.05799 35.9207 2.99054 33.0714 3.81685 31.0667C4.09228 30.391 4.48014 29.8223 4.94108 29.3661C5.6381 28.6623 6.50937 28.2174 7.43686 28.0428C8.36435 27.8683 9.34242 27.9527 10.2643 28.3356C10.8995 28.589 11.5009 28.9889 12.0349 29.5182C12.569 30.0588 12.9624 30.6613 13.221 31.292C13.5976 32.2098 13.6876 33.2009 13.5133 34.13C13.3391 35.0479 12.8894 35.932 12.1923 36.6246C11.737 37.0864 11.1693 37.4749 10.4948 37.7508C8.49363 38.573 5.64934 38.5054 3.24911 38.8658C3.09734 38.8827 2.95119 38.8489 2.83877 38.7306C2.72635 38.6237 2.68138 38.4773 2.70386 38.3196H2.69824Z" fill="#121212"/>
<path fill-rule="evenodd" clip-rule="evenodd" d="M8.34749 28.2963C8.06081 28.2963 7.77413 28.3244 7.49308 28.3864C6.61056 28.5553 5.80674 28.972 5.17717 29.6083C4.7331 30.0475 4.38459 30.5881 4.13164 31.1963C3.59763 32.5083 3.44586 34.2427 3.29971 35.9264C3.22663 36.7373 3.15356 37.5932 3.03552 38.3816C3.02989 38.421 3.04114 38.4604 3.07486 38.4886C3.10859 38.528 3.14794 38.5392 3.18729 38.528C3.97424 38.4097 4.82304 38.3309 5.64372 38.2633C7.31882 38.1169 9.05013 37.9705 10.3542 37.4299C10.9613 37.1765 11.4953 36.8218 11.9394 36.3825C12.5746 35.7462 12.9962 34.9466 13.1648 34.0625C13.3334 33.1841 13.2379 32.2718 12.8894 31.4272C12.6364 30.8134 12.2654 30.2503 11.7764 29.7604C11.293 29.2817 10.7309 28.8988 10.1238 28.6567C9.55041 28.4202 8.94333 28.2963 8.34187 28.2963H8.34749ZM3.1648 39.2206C2.94558 39.2206 2.74322 39.1418 2.58582 38.9785C2.39471 38.7926 2.31039 38.5392 2.35536 38.2746C2.46778 37.5144 2.54086 36.6697 2.61393 35.8645C2.7657 34.1301 2.92309 32.3394 3.49645 30.9429C3.77751 30.239 4.18223 29.6308 4.69375 29.124C5.4245 28.392 6.34636 27.9021 7.36941 27.705C8.38122 27.5079 9.42112 27.6149 10.3936 28.0203C11.0906 28.3019 11.7202 28.7355 12.2767 29.2817C12.8332 29.8392 13.2491 30.4755 13.5414 31.1681C13.9405 32.1367 14.0473 33.1841 13.8562 34.192C13.6595 35.2169 13.1704 36.1404 12.4397 36.8724C11.9338 37.3792 11.3211 37.7847 10.624 38.0775C9.22439 38.6462 7.43686 38.8039 5.7168 38.9616C4.90735 39.0291 4.0698 39.0967 3.30533 39.215C3.26036 39.2262 3.21539 39.2262 3.17604 39.2262L3.1648 39.2206Z" fill="#0F9E2A"/>
<path fill-rule="evenodd" clip-rule="evenodd" d="M13.4513 22.2541L10.0281 15.7446L11.2872 14.4832C11.602 14.1679 11.928 13.9651 12.254 13.8694C12.5857 13.7624 12.923 13.7737 13.2546 13.8863L19.5278 16.1782L13.4626 22.2597L13.4513 22.2541Z" fill="#121212"/>
<path fill-rule="evenodd" clip-rule="evenodd" d="M10.4497 15.8065L13.5413 21.6797L18.8982 16.3133L13.1366 14.2185C12.8836 14.1228 12.6251 14.1116 12.3609 14.2017C12.0854 14.2805 11.81 14.4551 11.5346 14.731L10.4553 15.8065H10.4497ZM13.4514 22.5976H13.4008C13.294 22.5807 13.1984 22.5075 13.1478 22.4118L9.71893 15.9022C9.64586 15.7727 9.67396 15.6094 9.78076 15.5024L11.0399 14.2411C11.394 13.8919 11.765 13.6442 12.1585 13.5372C12.5576 13.4077 12.9848 13.4189 13.3727 13.5653L19.6459 15.8459C19.7527 15.8854 19.8314 15.9755 19.8651 16.0824C19.8932 16.1894 19.8707 16.3077 19.7976 16.3978L13.7043 22.5075C13.6425 22.5751 13.5525 22.6032 13.457 22.6032L13.4514 22.5976Z" fill="#0F9E2A"/>
<path fill-rule="evenodd" clip-rule="evenodd" d="M18.6733 28.8312L25.1714 32.2662L26.4305 31.0048C26.7397 30.6895 26.9476 30.3685 27.0488 30.0363C27.15 29.704 27.1388 29.3718 27.0207 29.0396L24.7385 22.7552L18.6733 28.8368V28.8312Z" fill="#121212"/>
<path fill-rule="evenodd" clip-rule="evenodd" d="M19.2468 28.7467L25.104 31.8494L26.1833 30.7626C26.4531 30.498 26.6329 30.2164 26.7173 29.9405C26.8016 29.6758 26.7903 29.4112 26.6948 29.1578L24.5981 23.3803L19.2468 28.7467ZM25.1715 32.6209C25.1152 32.6209 25.059 32.604 25.0084 32.5815L18.5104 29.1465C18.4149 29.0902 18.3474 29.0001 18.3305 28.8931C18.3137 28.7748 18.353 28.6679 18.4261 28.589L24.4913 22.5074C24.5812 22.4511 24.7161 22.4117 24.8173 22.4399C24.9241 22.468 25.0309 22.53 25.0647 22.637L27.3468 28.9213C27.493 29.3098 27.5042 29.7321 27.3806 30.1376C27.2681 30.5261 27.0264 30.9034 26.6723 31.2525L25.4132 32.5139C25.3457 32.5815 25.2558 32.6209 25.1715 32.6209Z" fill="#0F9E2A"/>
<path fill-rule="evenodd" clip-rule="evenodd" d="M18.7015 29.5576L26.4812 22.1359L26.4194 22.1922L26.3519 22.2428L26.2844 22.2935L26.217 22.3442L26.1439 22.3949L26.0708 22.4343L25.9922 22.4737L25.9135 22.5131L25.8348 22.5413L25.7561 22.5695L25.6717 22.5976L25.5874 22.6258L25.4975 22.6427L25.4076 22.6596L25.3176 22.6821L25.2221 22.699L25.1265 22.7102L25.0309 22.7215H24.9298L24.8286 22.7328H24.7274L24.6206 22.7215H24.5138L24.407 22.7102L24.3002 22.699L24.1878 22.6821L24.0753 22.6596L23.9629 22.6427L23.8449 22.6258L23.7325 22.5976L23.6144 22.5695L23.4907 22.53L23.3727 22.5019L23.249 22.4512L23.1254 22.4118L23.0073 22.3724L22.8837 22.3217L22.7656 22.271L22.642 22.2147L22.5239 22.164L22.4059 22.1077L22.2878 22.0514L22.1698 21.9838L22.0461 21.9275L21.9281 21.8599L21.8156 21.7924L21.6976 21.7135L21.5796 21.646L21.4671 21.5671L21.3547 21.4883L21.2423 21.4094L21.1299 21.3306L21.0174 21.2405L20.905 21.1617L20.7982 21.0716L20.6914 20.9871L20.5846 20.8914L20.4778 20.8013L20.371 20.7056L20.2642 20.6155L20.163 20.5197L20.0619 20.424L19.9607 20.3283L19.8595 20.2213L19.7639 20.1256L19.6684 20.0186L19.5728 19.9116L19.4829 19.8158L19.3929 19.7089L19.303 19.6019L19.2131 19.4836L19.1231 19.3766L19.0388 19.2696L18.9545 19.1514L18.8758 19.0444L18.7971 18.9261L18.7184 18.8079L18.6453 18.6896L18.5723 18.5826L18.4992 18.4644L18.4317 18.3461L18.3643 18.2222L18.3024 18.104L18.235 17.9857L18.1788 17.8675L18.1169 17.7492L18.0663 17.6197L18.0158 17.5015L17.9652 17.3832L17.9146 17.2593L17.8752 17.1411L17.8303 17.0228L17.7909 16.8933L17.7516 16.7751L17.7178 16.6568L17.6897 16.5273L17.6616 16.409L17.6391 16.2908L17.6167 16.1838L17.5998 16.0655L17.5829 15.9473L17.5717 15.8403L17.5604 15.7333V15.6263L17.5492 15.5193V15.3166L17.5604 15.2209L17.5717 15.1251L17.5829 15.035L17.5998 14.9393L17.6223 14.8492L17.6391 14.7535L17.6616 14.6634L17.6897 14.5846L17.7178 14.4945L17.7459 14.4156L17.7797 14.3368L17.8134 14.258L17.8527 14.1791L17.8921 14.1115L17.9371 14.0327L17.982 13.9651L18.027 13.9032L18.0832 13.8356L18.1394 13.7737L10.7926 21.6234C7.85275 24.9007 15.4469 32.5083 18.7184 29.5633L18.7015 29.5576Z" fill="#61FF7E"/>
<path fill-rule="evenodd" clip-rule="evenodd" d="M17.195 15.2659L11.0342 21.8543C9.67393 23.3691 10.9218 25.9369 12.6588 27.6769C14.3957 29.4169 16.9533 30.6614 18.471 29.3043L25.0084 23.0706L24.7386 23.0819L23.0185 22.7497L20.5789 21.3475L18.3361 18.8698L17.3074 16.4823L17.1894 15.525V15.2716H17.195V15.2659ZM16.9139 30.5769C15.3119 30.5769 13.5075 29.507 12.1641 28.1668C10.2023 26.2015 8.85324 23.2452 10.5171 21.3813L17.8695 13.5316C18.0045 13.3852 18.2124 13.3852 18.353 13.5147C18.4935 13.6442 18.5047 13.8582 18.3811 13.9933H18.3586L18.3754 14.0046L18.2855 14.0947L18.1899 14.2017L18.2068 14.2129H18.1787L18.0831 14.3087L18.1281 14.3256H18.0607L17.9763 14.4213L18.0663 14.4607L17.8695 15.5193L18.2518 17.2425L19.8088 19.6695L22.3215 21.6741L24.6318 22.378H24.8285L25.7785 22.1809L25.8516 22.2372L25.9246 22.1809L25.8965 22.1246L25.9471 22.164L26.0371 22.0739L26.0202 22.057L26.0483 22.0683L26.1382 21.9782H26.1326C26.1326 21.9782 26.1663 21.9501 26.1832 21.9388L26.2394 21.8769L26.2563 21.8994C26.3968 21.8431 26.5767 21.8431 26.6779 21.9501C26.8071 22.0852 26.8521 22.2541 26.7172 22.3893L18.9376 29.8111C18.9376 29.8111 18.9376 29.8223 18.9319 29.8223C18.3473 30.3517 17.6503 30.5769 16.9083 30.5769H16.9139Z" fill="#0F9E2A"/>
<path fill-rule="evenodd" clip-rule="evenodd" d="M15.4805 20.5422L15.087 19.8158L4.3675 22.0513C2.28206 22.5694 1.79302 23.2564 0.348389 24.7036L0.747489 25.43C2.19774 23.9828 2.68116 23.3071 4.7666 22.789L15.4861 20.5478L15.4805 20.5422Z" fill="black"/>
<path fill-rule="evenodd" clip-rule="evenodd" d="M0.775676 24.76L0.820645 24.8557L0.910583 24.76C2.06854 23.5831 2.70935 22.9411 4.67112 22.44L14.9522 20.2945L14.9016 20.2044L4.43504 22.3893C2.67562 22.8285 2.15285 23.3578 1.01739 24.5122L0.775676 24.7543V24.76ZM0.741949 25.7792H0.691359C0.584558 25.7567 0.488998 25.6891 0.432787 25.5934L0.0393076 24.867C-0.0337672 24.7318 -0.00566154 24.5629 0.0955189 24.4559L0.517104 24.0223C1.67506 22.8454 2.31587 22.2034 4.27764 21.7135L15.014 19.4724C15.1658 19.4442 15.3119 19.5118 15.3906 19.6469L15.7841 20.3733C15.8347 20.4691 15.8403 20.5873 15.7953 20.6887C15.7504 20.7844 15.6604 20.8632 15.5536 20.8858L4.83414 23.1269C3.0691 23.5662 2.55195 24.0955 1.41086 25.2499L0.994901 25.6778C0.927447 25.7341 0.84313 25.7736 0.753192 25.7736L0.741949 25.7792Z" fill="#0F9E2A"/>
<path fill-rule="evenodd" clip-rule="evenodd" d="M15.4806 20.5423L4.76105 22.7834C4.17646 22.9186 3.63683 23.1157 3.17589 23.3409C2.71496 23.5774 2.31586 23.859 2.00108 24.1743L0.741943 25.4244L9.83694 26.1959L15.4806 20.5366V20.5423Z" fill="#121212"/>
<path fill-rule="evenodd" clip-rule="evenodd" d="M1.51206 25.1541L9.70206 25.8411L14.4126 21.1222L4.82853 23.1213C4.27766 23.2564 3.77176 23.4366 3.32769 23.6618C2.89486 23.8758 2.52949 24.1292 2.24281 24.4277L1.51206 25.1597V25.1541ZM9.83696 26.5393H9.80886L0.70824 25.7735C0.578954 25.7622 0.46091 25.6778 0.415941 25.5483C0.370972 25.4187 0.399078 25.2723 0.494637 25.1766L1.75377 23.9209C2.09104 23.5774 2.51825 23.2733 3.01291 23.0312C3.50757 22.7778 4.06968 22.5807 4.67676 22.4343L15.4075 20.1931C15.5593 20.1649 15.7054 20.2438 15.7841 20.3676C15.8572 20.5028 15.8291 20.6717 15.7223 20.7787L10.0843 26.438C10.0168 26.4943 9.93252 26.5337 9.83696 26.5337V26.5393Z" fill="#0F9E2A"/>
<path fill-rule="evenodd" clip-rule="evenodd" d="M18.3587 39.3838L17.0995 40.6452L16.2563 40.1666L17.5155 38.9052C18.2687 38.1112 18.6397 37.1934 18.8983 36.146L21.1355 25.4075L21.9843 25.8861L19.7471 36.6246C19.4885 37.6607 19.1119 38.6011 18.3643 39.3838H18.3587Z" fill="black"/>
<path fill-rule="evenodd" clip-rule="evenodd" d="M16.8185 40.0877L17.0378 40.2172L18.1114 39.1417C18.7185 38.5054 19.1176 37.7058 19.4099 36.5401L21.5909 26.0663L21.3717 25.9368L19.2356 36.2135C19.0052 37.1539 18.651 38.2182 17.7629 39.1473L16.8185 40.0877ZM17.0996 41C17.0434 41 16.9872 40.9774 16.931 40.9493L16.0878 40.4706C15.9922 40.42 15.9304 40.3242 15.9135 40.2172C15.8967 40.1102 15.936 40.0033 16.0091 39.9244L17.2682 38.6631C17.8809 38.0267 18.2688 37.244 18.5667 36.0615L20.7983 25.3399C20.8208 25.2216 20.8939 25.1372 20.995 25.0977C21.0962 25.0471 21.2143 25.0471 21.3098 25.109L22.1586 25.5876C22.2935 25.6552 22.3554 25.8129 22.3273 25.9593L20.09 36.6978C19.7696 37.9986 19.3143 38.8996 18.6173 39.6316L17.3582 40.893C17.2907 40.9605 17.2064 41 17.1108 41H17.0996Z" fill="#0F9E2A"/>
<path fill-rule="evenodd" clip-rule="evenodd" d="M21.1299 25.4075L18.8984 36.146C18.7578 36.7316 18.5667 37.2722 18.3306 37.7339C18.1002 38.1957 17.8191 38.5955 17.5099 38.9108L16.2508 40.1722L15.4863 31.0611L21.1299 25.4131V25.4075Z" fill="#121212"/>
<path fill-rule="evenodd" clip-rule="evenodd" d="M15.8515 31.1906L16.5373 39.3951L17.268 38.6631C17.5547 38.3815 17.8077 38.0155 18.0269 37.5763C18.2517 37.1371 18.4316 36.6303 18.5609 36.0672L20.5564 26.4718L15.8515 31.1906ZM16.2506 40.5214C16.2113 40.5214 16.1663 40.5101 16.1326 40.4932C16.0089 40.4538 15.919 40.3355 15.9077 40.2004L15.1489 31.0836C15.1376 30.9879 15.177 30.8809 15.2444 30.8134L20.8881 25.1654C20.9949 25.0584 21.1635 25.0302 21.2984 25.1091C21.4333 25.1766 21.5064 25.3343 21.4727 25.4807L19.2411 36.2192C19.0949 36.833 18.8926 37.4017 18.6452 37.8916C18.3923 38.3984 18.0944 38.8208 17.7571 39.153L16.498 40.4144C16.4305 40.4819 16.3406 40.5214 16.2506 40.5214Z" fill="#0F9E2A"/>
<path fill-rule="evenodd" clip-rule="evenodd" d="M23.4515 23.4197L23.592 23.4591L23.7269 23.4872L23.8618 23.5154L23.9967 23.5492L24.126 23.5661L24.2553 23.5773L24.3846 23.5942L24.5082 23.6055L24.6319 23.6167H24.8736L24.9917 23.6055H25.1097L25.2165 23.5942L25.3289 23.5773L25.4357 23.5548L25.5425 23.5379L25.6493 23.5154L25.7505 23.4872L25.8517 23.4591L25.9473 23.4309L26.0372 23.3915L26.1328 23.3521L26.2227 23.3127L26.307 23.262L26.3913 23.2113L26.4756 23.1663L26.5543 23.1043L26.6274 23.0593L26.7061 22.9861L26.7736 22.9298L37.2008 13.0922L27.0321 2.7085L17.1108 13.2499L17.0434 13.3175L16.9872 13.3963L16.9253 13.4639L16.8747 13.554L16.8241 13.6328L16.7736 13.7117L16.7286 13.7961L16.6836 13.8862L16.6499 13.9819L16.6105 14.0833L16.5768 14.1678L16.5487 14.2748L16.5206 14.3761L16.4981 14.4831L16.4756 14.5788L16.4588 14.6971L16.4475 14.8041L16.4363 14.9111L16.425 15.0293V15.1476V15.2658V15.3897L16.4307 15.508L16.4475 15.6375L16.4588 15.767L16.4756 15.9022L16.4925 16.0317L16.5206 16.1668L16.5487 16.2907L16.5824 16.4315L16.6162 16.5779L16.6555 16.713L16.7005 16.8538L16.7398 16.989L16.7904 17.1354L16.841 17.2705L16.8972 17.4113L16.9534 17.5577L17.0153 17.6928L17.0827 17.828L17.1502 17.9688L17.2176 18.1039L17.2907 18.2391L17.3638 18.3798L17.4425 18.515L17.5212 18.6501L17.5999 18.7909L17.6842 18.926L17.7741 19.0556L17.8641 19.1907L17.954 19.3202L18.0496 19.4554L18.1451 19.5849L18.2463 19.7088L18.3419 19.8383L18.4487 19.9622L18.5498 20.0917L18.6566 20.2212L18.7634 20.3338L18.8759 20.4633L18.9883 20.5816L19.1007 20.6998L19.2188 20.8125L19.3368 20.9363L19.4548 21.0433L19.5729 21.156L19.6909 21.2686L19.8146 21.3756L19.9383 21.4826L20.0675 21.5896L20.1912 21.6853L20.3205 21.7923L20.4498 21.8936L20.5791 21.9894L20.7084 22.0795L20.8376 22.1752L20.9725 22.2653L21.1018 22.3554L21.2424 22.4286L21.3773 22.5187L21.5122 22.5975L21.6471 22.6764L21.7876 22.7439L21.9225 22.8228L22.0574 22.8903L22.198 22.9579L22.3329 23.0199L22.479 23.0762L22.6139 23.1325L22.7544 23.1944L22.895 23.2451L23.0355 23.2901L23.176 23.3408L23.3109 23.3802L23.4515 23.4197Z" fill="black"/>
<path fill-rule="evenodd" clip-rule="evenodd" d="M23.5413 23.0875L24.7611 23.262L26.2844 22.8678L26.543 22.6707L36.706 13.0754L27.0376 3.20406L16.8802 14.3705L16.7734 15.2715L17.0714 16.8876L18.2349 19.1175L20.281 21.3193L22.878 22.8678L23.5413 23.0818V23.0875ZM24.7554 23.9603L23.367 23.7632L23.3614 23.7519L21.1973 22.8115L18.7352 20.8237L16.9083 18.2672L16.1326 15.9472L16.082 15.2715L16.3687 13.7511L16.8521 13.0078L26.7791 2.47201C26.8465 2.40444 26.9308 2.36502 27.0264 2.35376C27.1219 2.35376 27.2063 2.39318 27.2737 2.46075L37.4423 12.8445C37.5098 12.9121 37.5435 13.0022 37.5435 13.0923C37.5435 13.188 37.5042 13.2781 37.4311 13.3457L26.0652 23.7519L24.7554 23.9603Z" fill="#0F9E2A"/>
<path fill-rule="evenodd" clip-rule="evenodd" d="M30.1629 9.85441C31.3265 11.02 32.7486 11.9267 34.1483 12.3096C35.548 12.6812 36.6666 12.456 37.3355 11.7802C38.01 11.1045 38.2349 9.98956 37.8639 8.58741C37.4873 7.17964 36.5823 5.7606 35.4187 4.58371C34.2551 3.41807 32.833 2.50583 31.4333 2.13418C30.028 1.76253 28.915 1.98777 28.2405 2.6635C27.5716 3.32797 27.3411 4.45419 27.7177 5.85633C28.0943 7.26974 28.9993 8.68877 30.1685 9.84878L30.1629 9.85441Z" fill="#121212"/>
<path fill-rule="evenodd" clip-rule="evenodd" d="M30.1574 2.30874C29.4604 2.30874 28.887 2.51146 28.4823 2.9169C27.8752 3.52506 27.7178 4.54428 28.0495 5.77749C28.3924 7.07828 29.2355 8.441 30.4103 9.61227C31.5795 10.7835 32.9455 11.6282 34.244 11.983C35.475 12.3096 36.4868 12.1575 37.0995 11.5437C37.7122 10.9299 37.864 9.92198 37.5379 8.68314C37.1894 7.38236 36.3519 6.01963 35.1771 4.84836C34.0022 3.66583 32.6419 2.83243 31.3434 2.47767C30.9219 2.37068 30.5228 2.31437 30.1574 2.31437V2.30874ZM35.4244 12.8389C35.0028 12.8389 34.5419 12.7713 34.0585 12.6418C32.6419 12.2589 31.1692 11.3579 29.9157 10.0965C28.6565 8.83518 27.7515 7.36546 27.3749 5.94643C26.9814 4.47108 27.2007 3.21535 27.9932 2.42136C28.7858 1.62738 30.0393 1.40213 31.5177 1.80757C32.9286 2.17922 34.4013 3.09146 35.6605 4.34156C36.9196 5.60293 37.819 7.08391 38.1956 8.49168C38.5947 9.97829 38.3755 11.234 37.5829 12.028C37.0489 12.563 36.3013 12.8389 35.4188 12.8389H35.4244Z" fill="#0F9E2A"/>
<path fill-rule="evenodd" clip-rule="evenodd" d="M39.6572 0.349121L38.2407 10.9581C38.1226 11.8309 37.836 12.5179 37.2008 13.0923C36.5318 13.6892 35.61 13.7173 34.7331 13.5935C34.452 13.554 34.1597 13.4977 33.8562 13.4189C32.2766 12.9966 30.6746 11.9717 29.3649 10.6597C28.0552 9.34761 27.0265 7.74275 26.6049 6.15478C26.5206 5.8507 26.4644 5.55788 26.4363 5.28196C26.3014 4.39788 26.3295 3.46875 26.9366 2.80428C27.5099 2.16796 28.1901 1.88641 29.067 1.76816L39.6572 0.349121Z" fill="#61FF7E"/>
<path fill-rule="evenodd" clip-rule="evenodd" d="M39.2523 0.748996L29.1062 2.11172C28.2461 2.22997 27.6728 2.50027 27.1894 3.04085C26.7509 3.51949 26.6216 4.21775 26.779 5.22572C26.8071 5.50727 26.8633 5.78319 26.942 6.06475C27.3355 7.53446 28.2799 9.07738 29.6065 10.412C30.933 11.7409 32.4732 12.6925 33.946 13.0811C34.2327 13.1599 34.5081 13.2106 34.7723 13.2388C35.7897 13.3964 36.4811 13.2669 36.9645 12.8277C37.4985 12.3491 37.7796 11.769 37.892 10.9075L39.2467 0.743365L39.2523 0.748996ZM35.5199 14.0046C35.2557 14.0046 34.9803 13.9764 34.6823 13.937C34.3957 13.8976 34.0865 13.8413 33.7717 13.7512C32.1866 13.3289 30.5396 12.3209 29.123 10.9019C27.7121 9.49409 26.7003 7.83854 26.2731 6.24494C26.1888 5.9296 26.127 5.61989 26.0989 5.32708C25.9134 4.12202 26.1045 3.22105 26.6835 2.57347C27.2737 1.92026 27.9988 1.5655 29.0219 1.42473L39.6121 6.00037e-05C39.7189 -0.0224644 39.8257 0.0169533 39.9044 0.0957886C39.9775 0.163362 40.0168 0.281615 39.9999 0.377343L38.5778 10.9976C38.4429 12.0168 38.0831 12.7376 37.4311 13.3401C36.9477 13.7793 36.3237 13.9933 35.5199 13.9933V14.0046Z" fill="#0F9E2A"/>
<path fill-rule="evenodd" clip-rule="evenodd" d="M30.4047 16.0598C28.8477 15.6488 26.6554 16.2344 25.5144 17.3831C24.3733 18.5206 24.7162 19.7876 26.2732 20.2043C27.8303 20.6266 30.0225 20.0354 31.1636 18.8923C32.3047 17.7548 31.9674 16.4878 30.4047 16.0655V16.0598Z" fill="#121212"/>
<path fill-rule="evenodd" clip-rule="evenodd" d="M29.2974 16.2739C28.0214 16.2739 26.588 16.7919 25.7617 17.6253C25.3007 18.0871 25.1096 18.5657 25.2164 18.9768C25.3232 19.3766 25.7336 19.6976 26.3631 19.8665C27.8134 20.2607 29.8595 19.7088 30.9162 18.6446C31.3772 18.1828 31.5739 17.7042 31.4615 17.2931C31.3491 16.8933 30.9444 16.5667 30.3148 16.4034C29.9944 16.3133 29.6515 16.2795 29.2974 16.2795V16.2739ZM27.3806 20.6887C26.9646 20.6887 26.5542 20.638 26.1776 20.5422C25.3007 20.3057 24.7218 19.8102 24.5419 19.1514C24.3676 18.4982 24.6206 17.7717 25.267 17.1242C26.5037 15.891 28.7971 15.2715 30.489 15.722C31.3716 15.9585 31.9505 16.4541 32.1248 17.1129C32.299 17.7661 32.0461 18.4925 31.3997 19.1401C30.4385 20.103 28.8364 20.6887 27.3749 20.6887H27.3806Z" fill="#0F9E2A"/>
<path fill-rule="evenodd" clip-rule="evenodd" d="M33.0468 15.8347L33.2379 16.5273C33.0243 16.0881 32.732 15.8122 32.3272 15.5588C31.8663 15.2828 31.4166 15.1477 30.8882 15.052C30.3374 14.9562 29.8258 14.9337 29.2637 14.9619C28.5892 15.0125 27.9821 15.1308 27.3301 15.3166C26.5712 15.5531 25.9023 15.8347 25.2334 16.2626C24.5926 16.685 24.0473 17.1636 23.6426 17.8225C23.4009 18.2448 23.266 18.6333 23.2885 19.1232C23.0355 18.1828 23.2491 17.1073 23.7887 16.3021C25.2109 14.1904 28.8421 14.089 31.2255 14.6184C31.9281 14.776 32.7376 15.1871 33.0411 15.8347H33.0468Z" fill="#61FF7E"/>
<path fill-rule="evenodd" clip-rule="evenodd" d="M28.5722 14.6859C26.7172 14.714 24.9297 15.2265 24.0753 16.4991C23.9572 16.668 23.8617 16.8595 23.783 17.0453C24.1146 16.6624 24.5306 16.3133 25.0421 15.9698C25.711 15.5474 26.408 15.2377 27.2231 14.9787C27.684 14.8435 28.1225 14.7535 28.5666 14.6859H28.5722ZM23.2883 19.4667C23.1309 19.4667 22.996 19.3597 22.9511 19.2133C22.6812 18.2053 22.8948 17.0115 23.4963 16.1105C24.9353 13.9764 28.5441 13.661 31.2984 14.2917C31.6638 14.3705 32.8892 14.714 33.3558 15.6938C33.367 15.7107 33.3726 15.7333 33.3783 15.7558L33.5581 16.4428C33.6031 16.6173 33.5132 16.7975 33.3445 16.8651C33.1815 16.9214 32.9904 16.8482 32.9117 16.6905C32.7487 16.347 32.5238 16.1105 32.1304 15.8684C31.7537 15.6544 31.3603 15.5024 30.815 15.4067C30.3204 15.3166 29.8426 15.2997 29.2692 15.3278C28.6396 15.3672 28.0494 15.4742 27.4142 15.6601C26.661 15.8966 26.0258 16.1781 25.4075 16.5723C24.7217 17.0228 24.2664 17.4733 23.9291 18.0195C23.7043 18.4137 23.6143 18.7346 23.6256 19.1175C23.6312 19.2921 23.5075 19.4498 23.3333 19.4779H23.2827L23.2883 19.4667Z" fill="#0F9E2A"/>
<path fill-rule="evenodd" clip-rule="evenodd" d="M31.4277 15.8234L31.7987 17.203C31.8886 17.5859 31.8211 17.8956 31.6469 18.2391C31.4895 18.5432 31.2984 18.7684 31.0511 18.9937C30.7194 19.2977 30.3821 19.5117 29.983 19.7088C29.5109 19.9453 29.0499 20.103 28.5384 20.21C27.7796 20.3677 27.0263 20.3958 26.2731 20.1987C25.6604 20.0298 25.0702 19.7088 24.8847 19.0612L24.5137 17.6816C24.6036 17.997 24.7666 18.1997 25.014 18.408C25.4355 18.7234 25.9133 18.8585 26.4361 18.9261C26.8914 18.9768 27.3018 18.9655 27.7514 18.9092C28.3304 18.8191 28.8532 18.6727 29.3872 18.4475C29.8987 18.2109 30.3315 17.9463 30.7363 17.569C31.2028 17.1073 31.5907 16.5104 31.4277 15.8234Z" fill="#121212"/>
<path fill-rule="evenodd" clip-rule="evenodd" d="M25.1995 18.9261L25.2108 18.9768C25.3288 19.3879 25.711 19.692 26.3631 19.8665C26.987 20.0355 27.6784 20.0355 28.471 19.8778C28.9544 19.7708 29.3929 19.6244 29.837 19.4104C30.2304 19.2021 30.5396 18.9993 30.8206 18.7459C31.0624 18.5207 31.2141 18.3236 31.3434 18.0815C31.4896 17.7887 31.5233 17.5522 31.4615 17.2988L31.4502 17.2593C31.3266 17.4452 31.1692 17.631 30.9837 17.8168C30.5621 18.211 30.118 18.5038 29.5334 18.7685C28.9657 19.0106 28.4204 19.1683 27.8021 19.2584C27.2906 19.326 26.8577 19.326 26.3968 19.2753C25.919 19.219 25.5368 19.1063 25.2051 18.9318L25.1995 18.9261ZM27.3637 20.6887C26.9533 20.6887 26.5598 20.638 26.1832 20.5423C25.2895 20.2889 24.7386 19.8271 24.5475 19.1626L24.1765 17.7718C24.1259 17.5859 24.2383 17.4001 24.4182 17.3494C24.6037 17.2931 24.7892 17.4001 24.8454 17.5859C24.9128 17.8112 25.0196 17.9576 25.2332 18.1322C25.5424 18.3687 25.9359 18.5038 26.4868 18.5826C26.8802 18.6221 27.2568 18.6221 27.7122 18.5601C28.2574 18.4813 28.7521 18.3349 29.258 18.1209C29.7695 17.8957 30.1574 17.6423 30.5115 17.31C31.0118 16.8089 31.2085 16.3527 31.0961 15.9079C31.0511 15.7221 31.1635 15.5362 31.349 15.4855C31.5289 15.4349 31.72 15.5475 31.7706 15.7333L32.1416 17.1129C32.2484 17.5465 32.1922 17.9351 31.973 18.3968C31.8043 18.7178 31.602 18.9656 31.2984 19.2471C30.9612 19.5512 30.607 19.7821 30.1517 20.0186C29.6515 20.2607 29.168 20.4296 28.6228 20.5479C28.1843 20.638 27.774 20.683 27.3749 20.683L27.3637 20.6887Z" fill="#0F9E2A"/>
<path fill-rule="evenodd" clip-rule="evenodd" d="M31.7988 17.203L31.4278 15.8234L31.4109 15.7727L31.3941 15.7333L31.3772 15.6882L31.7482 17.0678L31.7651 17.1073L31.7819 17.1523L31.7988 17.203Z" fill="black"/>
<path fill-rule="evenodd" clip-rule="evenodd" d="M31.7987 17.5577C31.6469 17.5577 31.512 17.462 31.4671 17.3043L31.4502 17.2536L31.4165 17.1579L31.0455 15.7783C31.0005 15.6037 31.0961 15.4179 31.2703 15.3559C31.4502 15.2996 31.6301 15.3954 31.6975 15.5587C31.6975 15.5699 31.7369 15.6657 31.7369 15.6769L32.1247 17.1128C32.1753 17.2987 32.0685 17.4845 31.8887 17.5352C31.8549 17.5464 31.8212 17.5521 31.7931 17.5521L31.7987 17.5577Z" fill="#0F9E2A"/>
<path fill-rule="evenodd" clip-rule="evenodd" d="M31.7987 17.203C31.6582 16.6962 31.186 16.2739 30.4046 16.0599C29.6233 15.8572 28.6902 15.8909 27.8021 16.1387C26.9195 16.3752 26.082 16.8032 25.5142 17.3832C24.9409 17.9519 24.7442 18.5544 24.8791 19.0669C25.014 19.5737 25.4861 19.996 26.2675 20.2044C27.8302 20.6267 30.0168 20.0354 31.1579 18.8923C31.7256 18.3236 31.928 17.721 31.7931 17.2086L31.7987 17.203ZM31.3209 15.1476C32.4451 15.4517 33.1309 16.0599 33.3276 16.7919C33.5244 17.5352 33.2377 18.3968 32.4114 19.2302C31.9898 19.6525 31.467 20.0242 30.8881 20.3282C29.8987 20.8576 28.2012 21.2968 27.0994 21.3193C26.4867 21.3306 25.8965 21.2686 25.3569 21.1222C24.227 20.8181 23.5469 20.21 23.3501 19.4779C23.1534 18.7346 23.4401 17.8731 24.2664 17.0397C25.0927 16.2175 26.2956 15.5925 27.5716 15.249C28.8476 14.9055 30.1967 14.8492 31.3265 15.1533L31.3209 15.1476Z" fill="#61FF7E"/>
<path fill-rule="evenodd" clip-rule="evenodd" d="M29.3086 16.2739C28.8589 16.2739 28.3755 16.3415 27.8921 16.471C27.0264 16.7075 26.2732 17.1073 25.7617 17.6254C25.3007 18.0871 25.1096 18.5658 25.2164 18.9768C25.3232 19.3766 25.7336 19.6976 26.3631 19.8665C27.8134 20.2607 29.8595 19.7089 30.9163 18.6446C31.3772 18.1829 31.5739 17.7042 31.4615 17.2931C31.3547 16.8821 30.9444 16.5667 30.3148 16.4034C30.0056 16.3133 29.6684 16.2795 29.3086 16.2795V16.2739ZM27.3806 20.6887C26.9646 20.6887 26.5543 20.638 26.1776 20.5423C25.3007 20.3058 24.7218 19.8102 24.5419 19.1514C24.3676 18.4982 24.6262 17.7718 25.267 17.1355C25.8629 16.5386 26.7285 16.0599 27.7066 15.7953C28.6903 15.5419 29.6796 15.5081 30.489 15.7277C31.3716 15.9642 31.9505 16.4597 32.1248 17.1186C32.2991 17.7718 32.0405 18.4982 31.3997 19.1458C30.4385 20.1087 28.8364 20.6943 27.3749 20.6943L27.3806 20.6887ZM29.7358 15.2941C30.2642 15.2941 30.7701 15.3504 31.231 15.4799C32.1979 15.7333 32.8218 16.2345 32.9905 16.8821C33.1647 17.5296 32.8724 18.2729 32.1641 18.9881C31.7763 19.371 31.2929 19.7201 30.7251 20.0242C29.7808 20.5254 28.1507 20.9421 27.0883 20.9759C26.5037 20.9759 25.9415 20.9252 25.4413 20.79C24.4801 20.5366 23.8505 20.0355 23.6819 19.3879C23.5076 18.7403 23.7999 17.997 24.5082 17.2819C25.2614 16.5273 26.38 15.9192 27.656 15.5757C28.3643 15.3898 29.0725 15.2941 29.7358 15.2941ZM26.9309 21.6685C26.335 21.6685 25.7729 21.5897 25.2614 21.4545C24.0472 21.1279 23.249 20.4634 23.0073 19.5625C22.7712 18.6728 23.1254 17.6817 24.0135 16.792C24.8511 15.9529 26.0821 15.2828 27.4705 14.9112C28.8589 14.5395 30.2586 14.5001 31.4053 14.8042C32.6138 15.1364 33.4177 15.8009 33.6594 16.7019C33.8955 17.5916 33.5413 18.5827 32.6532 19.4724C32.2147 19.9116 31.6751 20.2945 31.0455 20.6267C30.0056 21.1842 28.2687 21.6347 27.0995 21.6572C27.0433 21.6685 26.9871 21.6685 26.9252 21.6685H26.9309Z" fill="#0F9E2A"/>
</g>
<defs>
<clipPath id="clip0_17_3492">
<rect width="40" height="41" fill="white"/>
</clipPath>
</defs>
</svg>
